<svg width="61" height="61" viewBox="0 0 61 61" fill="none" xmlns="http://www.w3.org/2000/svg">
<path d="M45.7442 33.9382L41.2312 38.458L26.749 23.9539L31.262 19.434L45.7442 33.9382ZM41.2312 36.8039L44.0928 33.938L31.262 21.0879L28.4004 23.9539L41.2312 36.8039Z" fill="#FFDC73"/>
<path d="M35.775 23.9539L21.2928 38.458L16.7798 33.9382L31.262 19.434L35.775 23.9539ZM21.2928 36.8039L34.1236 23.9537L31.262 21.0879L18.4312 33.9382L21.2928 36.8039Z" fill="#FFDC73"/>
<path d="M41.5872 29.7713L31.2646 40.1094L20.9421 29.7713L31.2646 19.4332L41.5872 29.7713ZM31.2646 38.4555L39.9356 29.7713L31.2646 21.0871L22.5937 29.7713L31.2646 38.4555Z" fill="#FFDC73"/>
<path d="M60.7798 30.4248H55.4636L55.4395 31.3495L59.6897 31.5063C59.6219 33.307 59.3887 35.1032 58.9891 36.8627L55.8788 36.1561C56.1014 35.2193 56.2481 34.2659 56.3622 33.31L57.4191 33.4281C57.3417 34.0925 57.2503 34.7539 57.1206 35.4108L58.1654 35.6073C58.3559 34.583 58.5047 33.5483 58.5685 32.5079L55.3878 32.2727C55.2752 33.8081 55.0199 35.3314 54.6244 36.8164L59.7606 38.1894C60.4421 35.6585 60.7627 33.0371 60.7798 30.4248Z" fill="#FFDC73"/>
<path d="M47.5688 49.9353L49.6504 52.3522C48.8373 53.0663 47.9673 53.7131 47.0808 54.3323L46.4812 53.4548C47.0506 53.0558 47.616 52.6522 48.1548 52.213L47.4914 51.3822C46.7104 52.0109 45.8907 52.5919 45.0409 53.1241L46.7406 55.8234C48.3231 54.8273 49.8117 53.684 51.1817 52.413L47.5653 48.5166C46.2179 49.7811 44.7147 50.8756 43.1176 51.8009L43.6498 52.7211C45.0384 51.917 46.3526 50.9832 47.5688 49.9353Z" fill="#FFDC73"/>
<path d="M55.5656 47.3262L52.9317 45.527C52.3567 46.3482 51.7587 47.1549 51.0958 47.9082L51.9014 48.6022C52.3658 48.0846 52.7819 47.5267 53.2056 46.9764L54.0604 47.6087C53.4136 48.4756 52.7261 49.3129 51.9879 50.1039L49.6499 47.9343C50.7415 46.7573 51.7235 45.4783 52.5784 44.1204L56.1772 46.3869C57.5859 44.1792 58.6644 41.7663 59.452 39.2696L54.3715 37.7041C53.9172 39.1726 53.3247 40.5984 52.604 41.9573L55.4229 43.4504C55.9044 42.5262 56.3562 41.5844 56.7255 40.6089L55.736 40.2204C55.5043 40.8482 55.2143 41.4512 54.9404 42.0608L53.983 41.599C54.3886 40.726 54.7711 39.8415 55.0827 38.9309L58.0935 39.9842C57.497 41.6869 56.7401 43.3333 55.837 44.8943L52.1557 42.7644C51.0903 44.6375 49.7434 46.3437 48.2342 47.8806L51.9929 51.6397C53.3141 50.316 54.5117 48.8706 55.5656 47.3262Z" fill="#FFDC73"/>
<path d="M45.7794 56.4023L43.1168 51.8008C42.8484 51.9505 42.5886 52.1169 42.3107 52.2501L44.3008 56.0088C42.7072 56.8536 41.0332 57.5491 39.3094 58.0823L38.3701 55.0343C39.2872 54.7418 40.1934 54.4156 41.0744 54.0261L41.5 55.0001C40.8874 55.266 40.2662 55.5163 39.634 55.7319L39.9853 56.736C40.9718 56.3978 41.9302 55.9846 42.8751 55.5444L41.489 52.6717C40.1029 53.3386 38.655 53.8749 37.1694 54.2704L38.5424 59.4061C41.0719 58.7221 43.5178 57.723 45.7794 56.4023Z" fill="#FFDC73"/>
<path d="M22.2754 54.7282L21.222 57.7391C20.1973 57.3878 19.2017 56.9601 18.2212 56.5018L18.683 55.5444C19.3168 55.8298 19.9445 56.1299 20.5963 56.3721L20.9848 55.3821C20.047 55.0267 19.1414 54.592 18.2523 54.1292L16.7597 56.9481C18.4121 57.824 20.148 58.5452 21.9356 59.098L23.5006 54.0176C21.7371 53.4748 20.0394 52.723 18.4413 51.8008L17.9086 52.721C19.2982 53.5251 20.7616 54.1985 22.2754 54.7282Z" fill="#FFDC73"/>
<path d="M28.5402 60.334L28.7754 57.1533C27.7743 57.092 26.7797 56.9482 25.7947 56.7653L25.5982 57.8101C26.2807 57.9448 26.9687 58.0403 27.6592 58.1202L27.5411 59.1766C26.4666 59.05 25.3957 58.8826 24.3418 58.6338L25.0489 55.524C26.6134 55.8793 28.211 56.0868 29.8157 56.1471L29.6594 60.3973C32.2703 60.4863 34.8997 60.2662 37.4522 59.6711L36.2742 54.4867C34.7751 54.8274 33.2432 55.0264 31.7039 55.0847L31.8215 58.272C32.8633 58.2388 33.9011 58.1318 34.9339 57.9885L34.7766 56.9372C34.1132 57.0206 33.4513 57.1161 32.7834 57.1528L32.705 56.0924C33.6669 56.0341 34.6218 55.8954 35.5681 55.72L36.1576 58.855C34.3851 59.1897 32.5814 59.357 30.7797 59.3616V55.1088C28.6221 55.0913 26.4676 54.8299 24.389 54.2686L23.016 59.4048C24.8238 59.8872 26.6772 60.1973 28.5402 60.334Z" fill="#FFDC73"/>
<path d="M15.7796 56.4024L18.4417 51.8009C18.1733 51.6496 17.907 51.4963 17.6511 51.325L15.3851 54.9238C13.8588 53.9629 12.4225 52.8603 11.1007 51.6335L13.2708 49.2961C13.9749 49.9535 14.7207 50.5651 15.4921 51.1415L14.8599 51.9964C14.3307 51.5888 13.7935 51.1888 13.2959 50.742L12.6019 51.5476C13.3854 52.2356 14.2231 52.8588 15.077 53.4559L16.8762 50.8219C15.6047 49.9545 14.4136 48.9679 13.3241 47.8799L9.56537 51.6391C11.4294 53.4734 13.504 55.1038 15.7796 56.4024Z" fill="#FFDC73"/>
<path d="M5.48417 35.2132L2.34917 35.8028C2.15166 34.7388 1.99787 33.6648 1.93103 32.5853L2.99145 32.5069C3.02964 33.2015 3.12814 33.89 3.21559 34.579L4.26696 34.4222C4.12976 33.4286 4.02623 32.4305 3.99457 31.4274L0.806793 31.545C0.877152 33.411 1.11889 35.2741 1.533 37.0984L6.71697 35.9199C6.30738 34.1212 6.09881 32.2758 6.09529 30.4248H5.03237C5.03689 32.032 5.18665 33.6367 5.48417 35.2132Z" fill="#FFDC73"/>
<path d="M3.74556 43.4448L6.61822 42.0587C6.19506 41.1496 5.79753 40.2284 5.47287 39.2795L4.46925 39.6308C4.6939 40.2882 4.95423 40.934 5.23064 41.5712L4.25616 41.9964C3.81893 41.0059 3.45055 39.9866 3.12288 38.9549L6.17094 38.0156C6.64486 39.5479 7.26301 41.036 8.01485 42.4532L4.25616 44.4434C5.48092 46.7572 7.01173 48.9087 8.79132 50.8255L12.6877 47.209C11.6409 46.0803 10.6991 44.8545 9.87987 43.5524L7.18059 45.2515C7.73342 46.1355 8.338 46.9869 8.99134 47.7995L9.82208 47.1361C9.39892 46.6175 9.01094 46.0732 8.62698 45.5259L9.50496 44.9259C10.0578 45.7144 10.6317 46.4893 11.2685 47.213L8.85162 49.2942C7.67512 47.9282 6.62576 46.4522 5.72215 44.8912L9.40344 42.7613C8.31488 40.9018 7.49721 38.8916 6.93484 36.8145L1.79962 38.1885C2.28108 39.9962 2.93341 41.7592 3.74556 43.4448Z" fill="#FFDC73"/>
<path d="M0.779785 30.4252H6.09593L6.12005 29.501L1.87035 29.3442C1.9377 27.5435 2.17139 25.7474 2.57093 23.9879L5.68131 24.695C5.45918 25.6318 5.31192 26.5846 5.19834 27.541L4.14145 27.4234C4.21834 26.759 4.31031 26.0971 4.43997 25.4408L3.39514 25.2443C3.20517 26.269 3.05641 27.3033 2.99208 28.3436L6.17332 28.5788C6.2864 27.0435 6.5407 25.5207 6.93672 24.0351L1.79999 22.6621C1.11751 25.192 0.796872 27.8134 0.779785 30.4252Z" fill="#FFDC73"/>
<path d="M13.9907 10.9144L11.9091 8.49756C12.7223 7.78341 13.5917 7.13661 14.4787 6.51695L15.0788 7.39493C14.5094 7.79397 13.944 8.19753 13.4047 8.63727L14.0681 9.46801C14.8491 8.8393 15.6688 8.25784 16.5186 7.72612L14.819 5.02734C13.2364 6.02293 11.7478 7.16677 10.3773 8.43775L13.9943 12.3336C15.3416 11.0687 16.8448 9.9741 18.4415 9.04938L17.9087 8.12918C16.5207 8.93278 15.2069 9.86705 13.9907 10.9144Z" fill="#FFDC73"/>
<path d="M5.99369 13.524L8.62763 15.3231C9.20257 14.5019 9.80062 13.6953 10.4635 12.942L9.65789 12.2479C9.19352 12.7651 8.7774 13.3234 8.35373 13.8737L7.49887 13.242C8.14567 12.3746 8.83369 11.5373 9.57145 10.7463L11.9094 12.9164C10.8173 14.0934 9.8358 15.3719 8.98094 16.7298L5.38206 14.4638C3.97337 16.671 2.89487 19.0843 2.10684 21.5806L7.18728 23.1461C7.6416 21.6776 8.23412 20.2518 8.9548 18.8929L6.13591 17.4002C5.65496 18.3245 5.20315 19.2663 4.83326 20.2418L5.82332 20.6302C6.055 20.003 6.34498 19.4 6.61838 18.7903L7.57576 19.2522C7.17019 20.1252 6.78774 21.0097 6.47615 21.9203L3.46528 20.8669C4.06182 19.1643 4.81869 17.5178 5.7223 15.9569L9.40359 18.0868C10.469 16.2132 11.8159 14.5075 13.3246 12.9701L9.56542 9.21094C8.24518 10.5342 7.04757 11.9796 5.99369 13.524Z" fill="#FFDC73"/>
<path d="M15.7798 4.44814L18.4419 9.04963C18.7108 8.89987 18.9701 8.73352 19.2481 8.60034L17.2579 4.84165C18.8515 3.99684 20.5251 3.30129 22.2494 2.76807L23.1887 5.81663C22.2715 6.10912 21.3649 6.43579 20.4844 6.82478L20.0587 5.8503C20.6713 5.58495 21.2925 5.33417 21.9247 5.11857L21.5734 4.11494C20.5869 4.45267 19.628 4.86577 18.6832 5.30602L20.0692 8.17869C21.4553 7.51178 22.9032 6.97605 24.3888 6.58053L23.0158 1.44531C20.4874 2.1278 18.0414 3.1269 15.7798 4.44814Z" fill="#FFDC73"/>
<path d="M39.2837 6.12227L40.3371 3.11139C41.3613 3.46269 42.3574 3.89087 43.3379 4.34871L42.876 5.3061C42.2423 5.02114 41.6146 4.72061 40.9628 4.47888L40.5743 5.46843C41.5121 5.82324 42.4177 6.25846 43.3067 6.72082L44.7993 3.90193C43.1469 3.02596 41.4115 2.30478 39.6234 1.75195L38.0579 6.83239C39.8214 7.37516 41.5191 8.127 43.1173 9.04921L43.6495 8.12901C42.2609 7.32541 40.7974 6.65247 39.2837 6.12227Z" fill="#FFDC73"/>
<path d="M33.0186 0.516429L32.7834 3.69767C33.7845 3.75898 34.7796 3.90222 35.7646 4.08515L35.9611 3.04031C35.2786 2.90563 34.5906 2.81014 33.8996 2.73023L34.0172 1.67334C35.0917 1.79998 36.1631 1.96683 37.217 2.21611L36.5099 5.32649C34.9459 4.97117 33.3478 4.76361 31.7431 4.7028L31.8994 0.452603C29.289 0.363649 26.6591 0.583773 24.1061 1.17881L25.2846 6.36278C26.7838 6.02254 28.3156 5.82302 29.8549 5.76523L29.7373 2.57745C28.6955 2.61062 27.6572 2.71767 26.6249 2.8609L26.7822 3.91277C27.4456 3.82934 28.1075 3.73335 28.7759 3.69717L28.8538 4.75758C27.8919 4.81588 26.937 4.95459 25.9907 5.12948L25.4012 1.99447C27.1742 1.65977 28.9774 1.49241 30.7791 1.48789V5.7411C32.9367 5.75869 35.0917 6.01953 37.1698 6.58089L38.5428 1.44517C36.7351 0.963712 34.8816 0.653629 33.0186 0.516429Z" fill="#FFDC73"/>
<path d="M45.7793 4.44922L43.1172 9.05071C43.3851 9.20198 43.652 9.35527 43.9073 9.52714L46.1734 5.92827C47.7001 6.88867 49.136 7.9918 50.4577 9.21807L48.2876 11.556C47.5836 10.8986 46.8377 10.287 46.0658 9.71058L46.698 8.85521C47.2267 9.2633 47.7645 9.66284 48.2615 10.1101L48.9556 9.30451C48.1726 8.61599 47.3343 7.99331 46.4804 7.39626L44.6812 10.0302C45.9522 10.8976 47.1433 11.8842 48.2329 12.9722L51.9916 9.21354C50.1295 7.37767 48.055 5.74735 45.7793 4.44922Z" fill="#FFDC73"/>
<path d="M56.0752 25.6376L59.2103 25.048C59.4078 26.1115 59.5615 27.1855 59.6289 28.2655L58.5685 28.3439C58.5303 27.6498 58.4318 26.9613 58.3443 26.2718L57.293 26.4291C57.4302 27.4222 57.5337 28.4208 57.5654 29.4234L60.7531 29.3063C60.6828 27.4403 60.441 25.5777 60.0269 23.7529L54.843 24.9314C55.2525 26.7301 55.4611 28.5756 55.4651 30.426H56.5281C56.5225 28.8183 56.3728 27.2136 56.0752 25.6376Z" fill="#FFDC73"/>
<path d="M57.8136 17.4061L54.9409 18.7921C55.3641 19.7008 55.7616 20.6225 56.0863 21.5718L57.0899 21.2205C56.8653 20.5632 56.6049 19.9169 56.329 19.2801L57.303 18.8545C57.7402 19.845 58.1086 20.8642 58.4363 21.8965L55.3882 22.8358C54.9143 21.303 54.2956 19.8154 53.5443 18.3981L57.303 16.4075C56.0782 14.0937 54.5474 11.9427 52.7678 10.0254L48.8719 13.6419C49.9188 14.7706 50.8606 15.9964 51.6798 17.299L54.3791 15.5993C53.8262 14.7158 53.2217 13.864 52.5683 13.0518L51.7376 13.7152C52.1607 14.2334 52.5487 14.7777 52.9327 15.3254L52.0547 15.925C51.5024 15.1365 50.9279 14.3615 50.2912 13.6378L52.708 11.5562C53.8845 12.9222 54.9339 14.3982 55.8375 15.9592L52.1562 18.0891C53.2443 19.9491 54.0624 21.9588 54.6248 24.0359L59.761 22.6634C59.2781 20.8542 58.6252 19.0917 57.8136 17.4061Z" fill="#FFDC73"/>
</svg>
