<svg width="16" height="23" viewBox="0 0 16 23" fill="none" xmlns="http://www.w3.org/2000/svg">
<path d="M4.71259 22.1886L1.27533 18.7566L12.3054 7.74316L15.7427 11.1752L4.71259 22.1886ZM2.53325 18.7566L4.71274 20.9328L14.4849 11.1752L12.3054 8.99903L2.53325 18.7566Z" fill="#FFDC73"/>
<path d="M12.3054 14.6066L1.27533 3.59318L4.71259 0.161133L15.7427 11.1745L12.3054 14.6066ZM2.53325 3.59318L12.3056 13.3507L14.4849 11.1745L4.71259 1.417L2.53325 3.59318Z" fill="#FFDC73"/>
<path d="M7.88091 19.0273L0.0190048 11.1771L7.88091 3.32715L15.7428 11.1771L7.88091 19.0273ZM1.27677 11.1771L7.88091 17.7713L14.485 11.1771L7.88091 4.58316L1.27677 11.1771Z" fill="#FFDC73"/>
</svg>
