<svg width="16" height="23" viewBox="0 0 16 23" fill="none" xmlns="http://www.w3.org/2000/svg">
<path d="M11.2874 22.1886L14.7246 18.7566L3.69449 7.74316L0.257231 11.1752L11.2874 22.1886ZM13.4667 18.7566L11.2872 20.9328L1.515 11.1752L3.69449 8.99903L13.4667 18.7566Z" fill="#FFDC73"/>
<path d="M3.69449 14.6066L14.7246 3.59318L11.2874 0.161133L0.257231 11.1745L3.69449 14.6066ZM13.4667 3.59318L3.69434 13.3507L1.515 11.1745L11.2874 1.417L13.4667 3.59318Z" fill="#FFDC73"/>
<path d="M8.11905 19.0273L15.981 11.1771L8.11905 3.32715L0.257145 11.1771L8.11905 19.0273ZM14.7232 11.1771L8.11905 17.7713L1.51491 11.1771L8.11905 4.58316L14.7232 11.1771Z" fill="#FFDC73"/>
</svg>
