<svg width="36" height="293" viewBox="0 0 36 293" fill="none" xmlns="http://www.w3.org/2000/svg">
<path fill-rule="evenodd" clip-rule="evenodd" d="M2.35511 10.2915L2.20988 0.936432C2.13727 0.936432 1.70158 10.3624 1.70158 10.7876L1.48374 29.5687L1.19329 67.1308C1.10614 74.658 1.09743 82.1597 1.08872 89.6665C1.08291 94.67 1.0771 99.6758 1.04806 104.693L0.975445 142.255L1.04806 179.817C1.0771 184.834 1.08291 189.84 1.08872 194.843C1.09743 202.35 1.10614 209.852 1.19329 217.379L1.33313 235.464H2.65095L2.7908 217.379C2.87794 209.852 2.88665 202.351 2.89536 194.844C2.90117 189.84 2.90698 184.834 2.93602 179.817L3.00864 142.255L2.93602 104.693C2.89972 99.1293 2.88156 93.5657 2.86341 88.0022C2.84529 82.4505 2.82718 76.8989 2.79103 71.3473C2.79317 71.515 2.81014 71.6971 2.8271 71.8792C2.84526 72.0741 2.86341 72.269 2.86341 72.4462C3.15387 75.9898 3.95262 79.6042 5.04183 83.2187C5.46128 84.7393 6.02907 86.2599 6.58199 87.7406C6.69911 88.0543 6.81556 88.3661 6.9298 88.6759L6.93009 88.6767C7.58352 90.5191 8.23694 92.3615 8.81777 94.2039C10.3427 99.0231 11.4319 103.701 11.9402 108.236C12.158 110.504 12.2306 112.701 12.0128 114.828C11.9402 115.891 11.7949 116.883 11.5045 117.875C11.4682 117.981 11.4319 118.105 11.3956 118.229C11.3593 118.353 11.323 118.477 11.2866 118.584L11.1414 119.08C11.1414 119.151 11.0688 119.292 10.9962 119.363C10.9236 119.293 10.8873 119.239 10.851 119.186C10.8147 119.133 10.7783 119.08 10.7057 119.009C10.4803 118.745 10.3109 118.454 10.1452 118.169C10.0441 117.995 9.94447 117.824 9.83436 117.662C9.25345 116.812 8.81777 115.891 8.38208 114.969C7.51071 113.127 6.85719 111.355 6.34889 109.654C5.98582 108.449 5.69536 107.315 5.47752 106.181C5.69536 105.118 5.98582 104.268 6.34889 103.488C6.85719 102.567 7.4381 101.858 7.9464 101.362C8.52731 100.866 8.963 100.582 9.32607 100.37C9.61652 100.157 9.83436 100.086 9.83436 100.086C9.83436 100.086 9.61652 100.157 9.25345 100.299C8.89038 100.441 8.38208 100.724 7.72856 101.149C7.07503 101.645 6.4215 102.283 5.76797 103.275C5.55013 103.63 5.33229 103.984 5.18706 104.339C4.97561 103.031 4.90099 101.791 4.83039 100.618L4.82399 100.511C4.68125 98.0037 4.88926 95.9753 5.03432 94.5606L5.04183 94.4874C5.18706 93.0699 5.33229 92.3612 5.33229 92.3612L4.8966 94.4874C4.60615 95.9048 4.31569 97.9601 4.24308 100.582C4.24308 102.142 4.31569 103.913 4.53353 105.898C4.49722 106.075 4.44276 106.27 4.3883 106.465C4.33384 106.66 4.27938 106.855 4.24308 107.032C3.51694 109.937 3.44432 113.552 4.24308 117.662C4.46092 118.726 4.75138 119.789 5.04183 120.781C5.33229 121.773 5.62275 122.836 5.84059 123.899C6.05843 124.962 6.27627 126.096 6.20366 127.088C6.49411 130.136 5.4049 131.057 5.4049 131.057H6.27627C6.63934 131.057 6.9298 130.986 7.22026 130.845C7.80117 130.632 8.30947 130.136 8.59993 129.64C8.74515 129.356 8.89038 129.073 8.963 128.86C9.03561 128.648 9.10822 128.435 9.10822 128.222C9.18084 127.868 9.18084 127.443 9.18084 127.088C9.1154 125.811 8.81405 124.649 8.54255 123.602C8.51279 123.487 8.48339 123.373 8.4547 123.261C8.41839 123.155 8.38208 123.031 8.34578 122.907C8.30947 122.783 8.27316 122.659 8.23685 122.553C8.67254 123.12 9.03561 123.687 9.25345 124.254C9.28976 124.324 9.32607 124.413 9.36237 124.502C9.39868 124.59 9.43499 124.679 9.47129 124.75C9.47129 124.785 9.48944 124.821 9.5076 124.856C9.52575 124.891 9.54391 124.927 9.54391 124.962C9.58022 125.033 9.59837 125.104 9.61652 125.175C9.63468 125.246 9.65283 125.317 9.68914 125.387C9.83437 125.954 9.90698 126.592 9.90698 127.159V129.002C9.90698 129.64 9.90698 130.349 9.97959 131.057C10.0159 131.412 10.0704 131.766 10.1248 132.12C10.1793 132.475 10.2337 132.829 10.2701 133.183C10.2701 133.247 10.2847 133.311 10.3009 133.381C10.3207 133.467 10.3427 133.562 10.3427 133.679C10.379 133.786 10.3971 133.874 10.4153 133.963C10.4334 134.052 10.4516 134.14 10.4879 134.246C10.6052 134.533 10.6751 134.819 10.7359 135.068C10.7504 135.127 10.7644 135.184 10.7783 135.239C11.0688 136.443 11.2866 137.577 11.3593 138.641C11.4319 139.491 11.3593 140.271 11.214 140.979C11.2866 140.058 11.1414 139.066 10.851 138.144C10.4153 136.656 9.68914 135.38 8.89038 134.388C8.09163 133.396 7.22026 132.616 6.49412 131.979C4.96922 130.774 3.88001 130.278 3.88001 130.278C3.88001 130.278 4.24308 131.341 4.60615 132.971C4.65657 133.266 4.71575 133.578 4.7776 133.905C4.89389 134.519 5.01964 135.183 5.11445 135.877C5.18706 136.94 5.25968 138.144 5.04183 139.208C4.96922 139.704 4.75138 140.2 4.53353 140.625C4.49723 140.66 4.46092 140.714 4.42461 140.767C4.38831 140.82 4.352 140.873 4.31569 140.908C4.24308 140.979 4.17046 141.05 4.02523 141.263C3.80739 141.546 3.66217 141.901 3.51694 142.255C3.08125 143.602 3.22648 144.806 3.73478 145.728C3.95262 146.153 4.31569 146.507 4.67876 146.72L5.11445 146.933C5.04185 146.968 4.95112 147.003 4.86037 147.039C4.76958 147.074 4.67878 147.11 4.60615 147.145C4.09785 147.287 3.80739 147.216 3.80739 147.216C3.80739 147.216 4.02524 147.429 4.60615 147.5C5.11445 147.57 5.9132 147.287 6.78457 146.862C7.22026 146.649 7.72855 146.436 8.16424 146.295C8.59992 146.224 9.10822 146.224 9.61652 146.436C10.0522 146.649 10.4879 146.933 10.9236 147.287H10.9962C11.0325 147.322 11.0688 147.34 11.1051 147.358C11.1414 147.375 11.1777 147.393 11.214 147.429L11.6497 147.783L11.7223 147.854C11.686 147.854 11.686 147.836 11.686 147.827C11.686 147.818 11.686 147.818 11.6497 147.854L11.214 148.208C10.6331 148.704 10.1974 149.059 9.68914 149.2C9.63927 149.213 9.59155 149.225 9.54524 149.237C9.32175 149.294 9.13098 149.342 8.89038 149.342H8.59993C8.4547 149.342 8.38208 149.342 8.23685 149.271C7.92431 149.184 7.61176 149.07 7.3161 148.962C7.13092 148.895 6.95236 148.83 6.78457 148.775C6.71196 148.775 6.49412 148.704 6.27627 148.633C6.23997 148.633 6.20366 148.616 6.16735 148.598C6.13105 148.58 6.09474 148.563 6.05843 148.563C5.47752 148.421 5.04183 148.35 4.67876 148.35C4.17046 148.35 3.88001 148.492 3.88001 148.492C3.88001 148.492 4.17046 148.421 4.67876 148.633C4.71507 148.669 4.76954 148.687 4.824 148.704C4.87846 148.722 4.93291 148.74 4.96922 148.775C4.89661 148.775 4.82399 148.775 4.75138 148.846C4.38831 149.059 4.02523 149.413 3.80739 149.838C3.37171 150.76 3.15387 151.964 3.58955 153.311C3.63553 153.401 3.68151 153.498 3.7298 153.599C3.83402 153.819 3.94898 154.061 4.09785 154.303C4.24308 154.516 4.31569 154.587 4.38831 154.658C4.42461 154.693 4.46092 154.746 4.49722 154.799C4.53353 154.852 4.56984 154.906 4.60615 154.941C4.82399 155.366 4.96922 155.792 5.11445 156.359C5.33229 157.422 5.33229 158.556 5.18706 159.619C5.04183 160.682 4.8966 161.674 4.67876 162.524C4.24308 164.154 3.95262 165.217 3.95262 165.217C3.95262 165.217 5.04183 164.721 6.56673 163.517C7.36548 162.95 8.16424 162.099 8.963 161.107C9.76175 160.044 10.4879 158.839 10.9236 157.351C11.1414 156.429 11.2866 155.437 11.2866 154.516C11.4319 155.225 11.5045 156.004 11.4319 156.855C11.4319 157.847 11.214 158.981 10.851 160.256C10.7057 160.54 10.6331 160.894 10.5605 161.249C10.4879 161.39 10.4153 161.603 10.4153 161.816C10.4153 161.887 10.3971 161.975 10.379 162.064C10.3608 162.152 10.3427 162.241 10.3427 162.312C10.1974 163.02 10.1248 163.729 10.0522 164.438C9.97959 165.147 9.97959 165.855 9.97959 166.493V168.336C9.97959 168.903 9.90698 169.541 9.76175 170.108C9.72544 170.179 9.70729 170.249 9.68913 170.32C9.67098 170.391 9.65283 170.462 9.61652 170.533C9.61652 170.568 9.59837 170.604 9.58022 170.639C9.56206 170.675 9.54391 170.71 9.54391 170.745C9.5076 170.816 9.47129 170.905 9.43499 170.994C9.39868 171.082 9.36237 171.171 9.32607 171.242C9.10822 171.809 8.67254 172.517 8.23685 173.084C8.31781 172.887 8.3762 172.667 8.43719 172.438C8.4856 172.256 8.53565 172.068 8.59993 171.879C8.89038 170.746 9.18084 169.541 9.25345 168.123C9.25345 167.769 9.25345 167.415 9.18084 166.989C9.18084 166.777 9.10822 166.564 9.03561 166.351C8.963 166.139 8.81777 165.784 8.67254 165.572C8.38208 165.076 7.87378 164.651 7.29287 164.438C7.00241 164.296 6.63934 164.225 6.34889 164.225C6.14429 164.225 5.98582 164.27 5.84747 164.31C5.7403 164.34 5.64522 164.367 5.55013 164.367C5.55013 164.367 6.34889 165.43 6.27627 168.265C6.27627 169.257 6.13104 170.391 5.9132 171.454C5.72782 172.419 5.48984 173.282 5.24403 174.172C5.20099 174.328 5.15772 174.485 5.11445 174.643C4.82399 175.636 4.53354 176.77 4.31569 177.762C3.58955 181.872 3.66216 185.558 4.38831 188.393C4.4301 188.597 4.49595 188.777 4.55817 188.948C4.60404 189.073 4.64794 189.194 4.67876 189.314C4.38831 191.227 4.38831 192.928 4.38831 194.488C4.46092 197.11 4.75138 199.165 5.04183 200.512C5.25968 201.929 5.47752 202.638 5.47752 202.638C5.47752 202.638 5.33229 201.929 5.18706 200.512C5.04183 199.094 4.89661 197.11 4.96922 194.488C5.02774 193.574 5.13343 192.614 5.24827 191.571C5.27592 191.32 5.30411 191.064 5.33229 190.802L5.33232 190.802C5.55016 191.228 5.76798 191.653 5.98582 192.007C6.63934 192.928 7.29287 193.637 7.9464 194.062C8.59992 194.558 9.10822 194.771 9.47129 194.913C9.83436 195.055 10.0522 195.125 10.0522 195.125C10.0522 195.125 9.18084 194.842 8.09163 193.85C7.51071 193.354 6.9298 192.645 6.49412 191.653C6.13104 190.873 5.84059 190.023 5.62275 188.96C5.84059 187.826 6.13104 186.621 6.49412 185.416C7.00241 183.715 7.65594 181.943 8.52731 180.101C8.96297 179.25 9.47124 178.329 9.97951 177.408L9.97959 177.407C10.1248 177.195 10.27 176.965 10.4153 176.734C10.5605 176.504 10.7057 176.274 10.851 176.061C10.9962 175.848 11.0688 175.777 11.1414 175.707C11.1807 175.707 11.1988 175.769 11.2185 175.837C11.2353 175.895 11.2533 175.958 11.2866 175.99L11.4319 176.486C11.4682 176.592 11.5045 176.716 11.5408 176.84C11.5771 176.965 11.6134 177.089 11.6497 177.195C11.8676 178.116 12.0854 179.179 12.158 180.242C12.3759 182.368 12.3032 184.566 12.0854 186.833C11.5771 191.369 10.4879 196.118 8.963 200.866C8.38208 202.78 7.72855 204.622 7.07503 206.394C6.4215 208.166 5.76797 210.009 5.18706 211.851C4.09785 215.466 3.2991 219.08 3.00864 222.553C2.86341 224.325 2.86341 226.026 3.08125 227.727C3.2991 229.427 3.73478 231.128 4.75138 232.475C5.76797 233.821 7.22026 234.885 8.89038 235.097C10.5605 235.31 12.0854 234.672 13.1746 233.751C13.6829 233.325 14.1912 232.758 14.5543 232.262C14.5773 232.229 14.6021 232.193 14.6281 232.156C14.7667 231.958 14.9403 231.71 15.0626 231.412C15.2078 231.057 15.2804 230.774 15.2804 230.42C15.353 229.144 15.0626 227.939 14.4091 227.018C14.1186 226.522 13.6829 226.096 13.1746 225.884C12.6663 225.671 12.158 225.6 11.6497 225.671C11.1414 225.742 10.7057 225.955 10.3427 226.167C9.97959 226.451 9.68914 226.805 9.54391 227.16C9.25345 227.868 9.32607 228.648 9.61652 229.144C9.90698 229.711 10.3427 229.994 10.7057 230.136C10.9846 230.245 11.2205 230.228 11.4137 230.215C11.4721 230.211 11.5266 230.207 11.5771 230.207C11.3593 230.207 11.0688 230.207 10.7057 230.065C10.3427 229.924 9.97959 229.569 9.76175 229.073C9.54391 228.577 9.54391 227.939 9.83436 227.301C9.97959 227.018 10.27 226.734 10.5605 226.522C10.9236 226.309 11.2866 226.167 11.7223 226.096C12.5937 225.955 13.3925 226.451 13.9008 227.301C14.4091 228.152 14.6269 229.215 14.4817 230.278L14.4816 230.278C14.409 230.561 14.3364 230.845 14.2638 231.057C14.1912 231.27 14.046 231.483 13.8281 231.695C13.4651 232.191 13.0294 232.617 12.5211 232.971C11.5771 233.68 10.2701 234.105 9.03561 233.892C7.80117 233.68 6.63934 232.758 5.9132 231.624C5.11445 230.42 4.75138 229.002 4.60615 227.443C4.46092 225.884 4.53354 224.254 4.67876 222.553C5.04183 219.222 5.84059 215.749 7.00241 212.206C7.58333 210.434 8.23685 208.733 8.963 206.89C9.68914 205.047 10.3427 203.205 10.9236 201.291C12.4485 196.472 13.5377 191.653 13.9734 186.904C14.1186 184.566 14.1912 182.227 13.9008 179.959C13.7555 178.825 13.5377 177.691 13.2472 176.628C13.102 176.344 13.0294 176.132 12.9568 175.848L12.8115 175.423C12.8115 175.337 12.7583 175.225 12.7002 175.103C12.6623 175.024 12.6223 174.94 12.5937 174.856C12.2306 174.006 11.7223 173.368 11.2866 172.872L10.4153 174.006C10.1248 174.36 9.83436 174.785 9.61652 175.14C9.44157 175.396 9.29297 175.678 9.13898 175.97C9.0373 176.162 8.93328 176.36 8.81777 176.557C8.46741 177.241 8.15154 177.925 7.8464 178.586C7.70885 178.883 7.57347 179.176 7.4381 179.463C6.63934 181.305 6.05843 183.219 5.62275 184.991C5.58644 185.097 5.56828 185.186 5.55013 185.274C5.53198 185.363 5.51382 185.451 5.47752 185.558C5.47752 183.29 5.84059 180.738 6.63934 178.045C6.81763 177.436 7.02327 176.881 7.23948 176.296C7.37551 175.929 7.51572 175.55 7.65594 175.14L8.30947 173.226C8.34577 173.191 8.38208 173.173 8.41839 173.155C8.45469 173.137 8.491 173.12 8.52731 173.084C9.83436 172.517 11.214 171.738 12.3032 171.029C12.4848 170.923 12.6663 170.799 12.8479 170.675C13.0294 170.551 13.2109 170.427 13.3925 170.32C13.5377 170.214 13.6648 170.125 13.7918 170.037C13.9189 169.948 14.046 169.86 14.1912 169.753C15.2804 168.974 16.2244 168.123 17.0958 167.202C18.8385 165.359 20.2908 163.091 20.7991 160.823C21.0169 159.689 21.0896 158.626 20.9443 157.634C20.8717 157.138 20.7265 156.713 20.5813 156.288C20.436 155.862 20.2182 155.437 20.0003 155.154C19.129 154.02 18.1124 153.382 17.1684 152.815C17.7493 153.098 18.4028 153.382 19.0564 153.665C19.4194 153.807 19.7825 153.949 20.2182 154.091L20.2183 154.091C20.4361 154.161 20.6539 154.232 20.9443 154.232H21.5979C22.4692 154.232 23.3406 154.161 24.2846 153.949C25.2286 153.736 26.0999 153.311 26.9713 152.886C27.8427 152.39 28.5688 151.894 29.3676 151.327C29.767 151.079 30.1482 150.813 30.5295 150.547C30.9107 150.281 31.2919 150.015 31.6912 149.767L32.2721 149.413L32.5626 149.2L33.2161 148.846C33.6518 148.598 34.1056 148.368 34.5594 148.137C35.0132 147.907 35.4671 147.677 35.9028 147.429L35.6124 147.287C35.3763 147.163 35.1357 147.039 34.8951 146.915C34.1736 146.543 33.452 146.171 32.853 145.799L32.0543 145.302L31.4734 144.948L29.1497 143.389C27.5522 142.397 25.8095 141.405 23.9941 140.979C23.0501 140.767 22.1061 140.625 21.2348 140.696C20.7992 140.696 20.3636 140.767 19.928 140.838L19.9277 140.838C19.492 140.908 19.0564 141.05 18.6933 141.192L18.2576 141.405C18.8385 140.979 19.4194 140.483 19.9277 139.774C20.1456 139.42 20.3634 139.066 20.5086 138.641C20.7265 138.215 20.7991 137.79 20.8717 137.294C21.0169 136.373 21.0169 135.239 20.7265 134.105C20.1456 131.837 18.7659 129.569 17.0232 127.726C16.0792 126.805 15.1352 125.954 14.1186 125.175C13.9734 125.069 13.8463 124.98 13.7192 124.891C13.5921 124.803 13.4651 124.714 13.3198 124.608C13.1383 124.502 12.9568 124.378 12.7752 124.254C12.5937 124.13 12.4122 124.005 12.2306 123.899C11.1414 123.19 9.83437 122.411 8.4547 121.844C8.4547 121.844 8.38208 121.773 8.30947 121.773C8.09163 120.923 7.80117 120.143 7.51071 119.434C7.07505 118.371 6.7846 117.45 6.49416 116.529L6.49412 116.529C5.69536 113.764 5.4049 111.213 5.4049 108.945C5.44121 109.052 5.45937 109.14 5.47752 109.229C5.49567 109.317 5.51382 109.406 5.55013 109.512C5.98582 111.284 6.56673 113.127 7.36549 115.04C7.80117 116.032 8.23685 116.954 8.74515 117.946C8.96299 118.371 9.25345 118.867 9.54391 119.363C9.76175 119.718 10.0522 120.143 10.3427 120.497L11.214 121.631C11.6497 121.135 12.158 120.497 12.5211 119.647C12.5574 119.576 12.5937 119.47 12.63 119.363C12.6663 119.257 12.7026 119.151 12.7389 119.08L12.8842 118.655C13.0294 118.442 13.102 118.159 13.1746 117.875C13.4651 116.812 13.6829 115.678 13.8281 114.544C14.1186 112.276 14.1186 109.937 13.9008 107.599C13.5377 102.921 12.3759 98.0309 10.851 93.2117C10.2701 91.2981 9.61652 89.4555 8.89038 87.6128C8.16424 85.7701 7.51071 84.0692 6.9298 82.2974C5.84059 78.7538 4.96922 75.2811 4.60615 71.9501C4.46092 70.2492 4.38831 68.6191 4.53353 67.0599C4.67876 65.5007 5.04183 64.0833 5.84059 62.8785C6.56673 61.6737 7.72856 60.8232 8.963 60.6106C10.1974 60.398 11.5045 60.8232 12.4485 61.5319C12.9568 61.8863 13.3925 62.3115 13.7555 62.8076C13.8039 62.8785 13.8604 62.9494 13.9169 63.0202C14.0298 63.162 14.1428 63.3037 14.1912 63.4455C14.2275 63.5872 14.2638 63.7112 14.3001 63.8353C14.3364 63.9593 14.3727 64.0833 14.4091 64.2251C14.5543 65.2881 14.3364 66.3512 13.8281 67.2017C13.3198 68.0521 12.4485 68.5482 11.6497 68.4065C11.214 68.3356 10.851 68.1939 10.4879 67.9813C10.1248 67.7686 9.90698 67.4852 9.76175 67.2017C9.39868 66.5638 9.47129 65.926 9.68914 65.4299C9.90698 64.8629 10.2701 64.5794 10.6331 64.4377C10.9962 64.2959 11.2866 64.2959 11.5045 64.2959C11.4749 64.2959 11.4364 64.293 11.3906 64.2895C11.2115 64.2759 10.9223 64.2539 10.6331 64.3668C10.2701 64.5085 9.83437 64.8629 9.54391 65.359C9.25345 65.8551 9.18084 66.6347 9.47129 67.3434C9.61652 67.7686 9.90698 68.0521 10.2701 68.3356C10.3332 68.3664 10.3948 68.3972 10.4555 68.4276C10.814 68.6069 11.1425 68.7711 11.5771 68.8317C12.0128 68.9026 12.5937 68.8317 13.102 68.6191C13.6103 68.3356 14.046 67.9812 14.3364 67.4852C14.99 66.5638 15.353 65.359 15.2078 64.0833C15.2078 63.7289 15.1352 63.4455 14.99 63.0911C14.9174 62.9494 14.8266 62.8076 14.7358 62.6659C14.6451 62.5241 14.5543 62.3824 14.4817 62.2406C14.1186 61.7445 13.6829 61.1776 13.102 60.7523C12.0128 59.831 10.4879 59.1931 8.81777 59.4058C7.14764 59.6184 5.62275 60.6815 4.67876 62.028C3.73478 63.3746 3.22648 65.0755 3.00864 66.7764C3.00254 66.8359 2.99645 66.8949 2.9904 66.9534C2.92435 67.5927 2.86341 68.1825 2.86341 68.8317V66.6347L2.57295 29.0726L2.35511 10.2915ZM11.7949 64.3668C11.7949 64.3668 11.7223 64.3668 11.5045 64.2959C11.7223 64.2959 11.7949 64.3668 11.7949 64.3668ZM11.8676 230.136C11.8676 230.136 11.7949 230.136 11.5771 230.207C11.7949 230.207 11.8676 230.136 11.8676 230.136ZM2.00183 291.937C1.99858 292.125 1.99532 292.314 1.99204 292.503C1.98876 292.314 1.98549 292.125 1.98224 291.937H2.00183ZM4.96922 149.909C5.04183 149.342 5.33229 148.988 5.62275 148.704C5.71068 148.769 5.80527 148.833 5.90854 148.903C6.14635 149.065 6.43016 149.258 6.78457 149.555C7.02129 149.67 7.25801 149.828 7.50638 149.993C7.71513 150.132 7.93211 150.276 8.16424 150.405L8.59993 150.618H8.67254C9.03561 151.327 9.25345 152.177 9.32607 153.169C9.39868 154.232 9.18084 155.437 8.81777 156.642C8.09163 159.052 6.78457 161.178 5.76797 162.666C6.20366 161.957 6.63934 161.036 7.00241 159.902C7.36549 158.697 7.58333 157.28 7.29287 155.792C7.14764 155.012 6.85719 154.303 6.4215 153.665C6.34889 153.594 6.29444 153.524 6.23998 153.453C6.18551 153.382 6.13105 153.311 6.05843 153.24C5.98582 153.098 5.76797 152.886 5.76797 152.886C5.62275 152.744 5.47752 152.602 5.4049 152.39C4.96922 151.539 4.82399 150.618 4.96922 149.909ZM5.76797 132.191C6.78457 133.68 8.09163 135.806 8.81777 138.215C9.18084 139.42 9.32607 140.625 9.32607 141.759C9.25345 142.751 9.03561 143.602 8.67254 144.31C8.56359 144.346 8.4728 144.381 8.38201 144.417C8.29127 144.452 8.20052 144.487 8.09163 144.523C7.58333 144.806 7.14764 145.161 6.71196 145.515C6.34889 145.799 6.05843 146.011 5.76797 146.224C5.4049 146.011 5.04183 145.586 4.96922 144.948C4.82399 144.239 4.96922 143.247 5.4049 142.468C5.47752 142.255 5.62275 142.113 5.76797 141.972C5.76797 141.901 5.91314 141.759 6.05833 141.617L6.05843 141.617C6.13104 141.546 6.1855 141.475 6.23997 141.405C6.29443 141.334 6.34889 141.263 6.4215 141.192C6.85719 140.554 7.14764 139.845 7.29287 139.066C7.58333 137.507 7.36549 136.089 7.00241 134.955C6.63934 133.892 6.20366 132.971 5.76797 132.191ZM12.158 125.317C12.0854 125.175 12.0854 125.104 12.0854 125.033L12.0147 124.964C12.0879 125.036 12.2319 125.175 12.3759 125.246C12.6663 125.387 12.9568 125.6 13.1746 125.813C14.1186 126.592 15.0626 127.443 15.8613 128.293C17.3862 129.994 18.5481 131.908 19.0564 133.679C19.2742 134.601 19.4194 135.451 19.3468 136.231C19.3468 136.656 19.2742 137.01 19.2016 137.365C19.129 137.719 18.9837 138.003 18.8385 138.286C18.2576 139.42 17.3136 140.271 16.4422 140.979C15.7992 141.502 15.1562 141.948 14.5424 142.374C14.3244 142.525 14.1101 142.673 13.9008 142.822C13.102 143.318 12.3759 143.885 11.8676 144.31L11.5771 144.594C11.7949 144.665 12.0127 144.806 12.2305 144.948L12.2306 144.948C12.3032 145.019 12.394 145.072 12.4848 145.125C12.5755 145.178 12.6663 145.232 12.7389 145.302C13.5373 144.948 14.4083 144.523 15.2792 144.098L15.2804 144.098C16.4422 143.46 17.6767 142.822 19.0564 142.397C19.2378 142.361 19.4011 142.326 19.5644 142.29C19.7279 142.255 19.8913 142.22 20.073 142.184C20.436 142.113 20.7991 142.113 21.1622 142.113C21.8883 142.113 22.6871 142.255 23.4132 142.468C24.8655 142.964 26.3178 143.814 27.8427 144.877L30.1663 146.507L30.7472 146.933L31.0377 147.145L31.1829 147.216L30.8925 147.429L30.2389 147.854C29.4402 148.421 28.6414 148.988 27.9153 149.555C26.463 150.689 25.0833 151.61 23.631 152.035C22.9049 152.248 22.1061 152.39 21.38 152.39H20.7991C20.769 152.39 20.714 152.378 20.6496 152.363C20.5585 152.343 20.4485 152.319 20.3634 152.319C20.3075 152.305 20.2489 152.292 20.1882 152.277C19.9332 152.218 19.64 152.15 19.3468 152.035C18.2347 151.693 17.1698 151.258 16.152 150.842C15.9072 150.742 15.6651 150.643 15.4257 150.547C14.5931 150.276 13.8455 149.964 13.1502 149.674C12.9358 149.584 12.7264 149.497 12.5211 149.413C12.3853 149.546 12.2212 149.651 12.0466 149.762C11.9411 149.83 11.8317 149.9 11.7223 149.98L11.9402 150.193C12.1242 150.327 12.3154 150.469 12.5163 150.618C12.9496 150.939 13.4276 151.294 13.9734 151.681C14.1827 151.83 14.397 151.978 14.6151 152.129C15.2289 152.555 15.8719 153.001 16.5149 153.524C17.3862 154.232 18.3302 155.083 18.9111 156.217C19.0564 156.5 19.2016 156.784 19.2742 157.138C19.3468 157.492 19.4194 157.918 19.4194 158.272C19.492 159.052 19.3468 159.902 19.129 160.823C18.6933 162.666 17.5315 164.509 15.934 166.21C15.1352 167.131 14.1912 167.911 13.2472 168.69C13.102 168.797 12.9749 168.885 12.8478 168.974C12.7208 169.062 12.5937 169.151 12.4485 169.257L12.4484 169.257C12.3758 169.328 12.2306 169.47 12.0854 169.541L11.9402 169.682C12.0128 169.541 12.0128 169.47 12.0128 169.399C12.0854 169.257 12.0854 169.045 12.0854 168.903C12.0854 168.265 12.0128 167.627 11.9402 167.06C11.8839 166.749 11.8228 166.452 11.7631 166.162C11.5917 165.329 11.4319 164.552 11.4319 163.658C11.4319 163.339 11.45 163.038 11.4682 162.737C11.4863 162.436 11.5045 162.135 11.5045 161.816V161.39C11.5045 161.361 11.5169 161.32 11.5315 161.271C11.5522 161.202 11.5771 161.119 11.5771 161.036C11.6134 160.894 11.6497 160.735 11.686 160.575C11.7223 160.416 11.7586 160.256 11.7949 160.115C12.0128 158.91 12.158 157.634 12.158 156.571C12.0854 154.728 11.5045 153.169 10.851 152.177C10.7057 151.539 10.4153 150.972 10.0522 150.476C10.7783 150.334 11.4319 149.909 12.0128 149.484L12.4485 149.13L12.8842 148.846C12.9568 148.811 13.0294 148.757 13.102 148.704C13.1746 148.651 13.2472 148.598 13.3198 148.563C13.3783 148.531 13.4378 148.499 13.4983 148.466C14.115 148.132 14.8305 147.745 15.4257 147.358C15.0989 147.145 14.7358 146.933 14.3727 146.72C14.0097 146.507 13.6466 146.295 13.3198 146.082L12.0128 145.161C11.4319 144.736 10.7783 144.381 10.1248 144.239C10.4879 143.743 10.7783 143.176 10.9962 142.538C11.7223 141.546 12.3032 140.058 12.3032 138.144C12.3759 137.081 12.2306 135.806 11.9402 134.601C11.8676 134.246 11.7949 133.963 11.7223 133.679C11.6497 133.538 11.6497 133.396 11.6497 133.325V132.9C11.5771 132.262 11.5771 131.624 11.5771 131.057C11.5771 130.111 11.7563 129.252 11.9388 128.377C11.9886 128.139 12.0387 127.899 12.0854 127.655C12.2306 127.088 12.3032 126.451 12.2306 125.813C12.2306 125.742 12.2125 125.653 12.1943 125.565C12.1762 125.476 12.158 125.387 12.158 125.317Z" fill="url(#paint0_linear_158_72223)"/>
<defs>
<linearGradient id="paint0_linear_158_72223" x1="35.9028" y1="146.72" x2="0.975445" y2="146.72" gradientUnits="userSpaceOnUse">
<stop offset="0.223958" stop-color="#DAA618"/>
<stop offset="0.505208" stop-color="#F6F494"/>
<stop offset="0.671875" stop-color="#EBC43C"/>
<stop offset="0.885417" stop-color="#D3A116"/>
</linearGradient>
</defs>
</svg>
