<svg width="35" height="292" viewBox="0 0 35 292" fill="none" xmlns="http://www.w3.org/2000/svg">
<path d="M1.24675 0.924225L1.39198 10.2793L1.60982 29.0604L1.90028 66.6225C1.90028 67.3312 1.90028 68.1108 1.90028 68.8195C1.90028 68.1108 1.97289 67.4729 2.0455 66.7642C2.26335 65.0633 2.77164 63.3624 3.71563 62.0158C4.65961 60.6693 6.18451 59.6062 7.85463 59.3936C9.52476 59.1809 11.0497 59.8188 12.1389 60.7401C12.7198 61.1653 13.1555 61.7323 13.5185 62.2284C13.6638 62.5119 13.8816 62.7954 14.0268 63.0789C14.1721 63.4333 14.2447 63.7167 14.2447 64.0711C14.3899 65.3468 14.0268 66.5516 13.3733 67.4729C13.0828 67.969 12.6472 68.3234 12.1389 68.6069C11.6306 68.8195 11.0497 68.8904 10.614 68.8195C10.1057 68.7487 9.7426 68.536 9.30692 68.3234C8.94384 68.0399 8.65339 67.7564 8.50816 67.3312C8.2177 66.6225 8.29032 65.8429 8.58077 65.3468C8.87123 64.8507 9.30692 64.4963 9.66998 64.3546C10.0331 64.2128 10.3961 64.2837 10.5414 64.2837C10.7592 64.2837 10.8318 64.3546 10.8318 64.3546C10.8318 64.3546 10.7592 64.3546 10.5414 64.2837C10.3235 64.2837 10.0331 64.2837 9.66998 64.4255C9.30692 64.5672 8.94385 64.8507 8.726 65.4177C8.50816 65.9138 8.43554 66.5516 8.79862 67.1895C8.94384 67.4729 9.16169 67.7564 9.52476 67.9691C9.88783 68.1817 10.2509 68.3234 10.6866 68.3943C11.4853 68.536 12.3567 68.0399 12.865 67.1895C13.3733 66.339 13.5911 65.2759 13.4459 64.2129C13.3733 63.9294 13.3007 63.7168 13.2281 63.4333C13.1555 63.2206 12.9376 63.008 12.7924 62.7954C12.4293 62.2993 11.9936 61.8741 11.4853 61.5197C10.5414 60.811 9.2343 60.3858 7.99986 60.5984C6.76542 60.811 5.60359 61.6615 4.87745 62.8663C4.0787 64.0711 3.71563 65.4885 3.5704 67.0477C3.42517 68.6069 3.49779 70.237 3.64301 71.9379C4.00608 75.2689 4.87745 78.7416 5.96666 82.2852C6.54758 84.057 7.20111 85.7579 7.92725 87.6006C8.65339 89.4433 9.30692 91.2859 9.88783 93.1994C11.4127 98.0187 12.5746 102.909 12.9376 107.586C13.1555 109.925 13.1555 112.264 12.865 114.532C12.7198 115.666 12.5019 116.8 12.2115 117.863C12.1389 118.146 12.0662 118.43 11.921 118.642L11.7758 119.068C11.7032 119.209 11.6306 119.493 11.558 119.635C11.1949 120.485 10.6866 121.123 10.2509 121.619L9.37953 120.485C9.08907 120.131 8.79862 119.706 8.58077 119.351C8.29032 118.855 7.99986 118.359 7.78202 117.934C7.27372 116.942 6.83804 116.02 6.40235 115.028C5.6036 113.114 5.02268 111.272 4.587 109.5C4.51438 109.287 4.51438 109.146 4.44177 108.933C4.44177 111.201 4.73223 113.752 5.53098 116.516C5.82144 117.438 6.11189 118.359 6.54758 119.422C6.83804 120.131 7.12849 120.91 7.34633 121.761C7.41895 121.761 7.49156 121.832 7.49156 121.832C8.87123 122.399 10.1783 123.178 11.2675 123.887C11.6306 124.1 11.9936 124.383 12.3567 124.596C12.6472 124.808 12.865 124.95 13.1555 125.163C14.1721 125.942 15.116 126.793 16.06 127.714C17.8028 129.557 19.1824 131.825 19.7633 134.093C20.0538 135.226 20.0538 136.36 19.9086 137.282C19.836 137.778 19.7633 138.203 19.5455 138.628C19.4003 139.054 19.1824 139.408 18.9646 139.762C18.4563 140.471 17.8754 140.967 17.2945 141.392C17.4397 141.321 17.5849 141.251 17.7302 141.18C18.0932 141.038 18.5289 140.896 18.9646 140.825C19.4003 140.754 19.836 140.684 20.2716 140.684C21.143 140.613 22.087 140.754 23.031 140.967C24.8463 141.392 26.5891 142.385 28.1866 143.377L30.5102 144.936L31.0911 145.29L31.8899 145.786C32.6887 146.282 33.7053 146.779 34.6492 147.275L34.9397 147.416C34.0683 147.913 33.1243 148.338 32.253 148.834L31.5994 149.188L31.309 149.401L30.7281 149.755C29.9293 150.251 29.2032 150.818 28.4044 151.314C27.6057 151.881 26.8795 152.377 26.0082 152.874C25.1368 153.299 24.2654 153.724 23.3214 153.937C22.3775 154.149 21.5061 154.22 20.6347 154.22C20.4169 154.22 20.199 154.22 19.9812 154.22C19.6907 154.22 19.4729 154.149 19.255 154.078C18.8194 153.937 18.4563 153.795 18.0932 153.653C17.4397 153.37 16.7862 153.086 16.2053 152.803C17.1492 153.37 18.1658 154.008 19.0372 155.141C19.255 155.425 19.4729 155.85 19.6181 156.275C19.7633 156.701 19.9086 157.126 19.9812 157.622C20.1264 158.614 20.0538 159.677 19.836 160.811C19.3277 163.079 17.8754 165.347 16.1326 167.19C15.2613 168.111 14.3173 168.962 13.2281 169.741C12.9376 169.954 12.7198 170.095 12.4293 170.308C12.0663 170.521 11.7032 170.804 11.3401 171.017C10.2509 171.725 8.87123 172.505 7.56417 173.072C7.49156 173.143 7.41895 173.143 7.34633 173.214C7.12849 173.852 6.91065 174.49 6.6928 175.127C6.32973 176.19 5.96667 177.041 5.67621 178.033C4.87745 180.726 4.51438 183.278 4.51438 185.546C4.587 185.333 4.587 185.191 4.65961 184.979C5.09529 183.207 5.67621 181.293 6.47496 179.451C6.91065 178.529 7.34633 177.537 7.85463 176.545C8.14509 176.049 8.36293 175.553 8.65339 175.127C8.87123 174.773 9.16169 174.348 9.45214 173.993L10.3235 172.859C10.7592 173.356 11.2675 173.993 11.6306 174.844C11.7032 175.056 11.8484 175.269 11.8484 175.411L11.9936 175.836C12.0662 176.12 12.1389 176.332 12.2841 176.616C12.5745 177.679 12.7924 178.813 12.9376 179.947C13.2281 182.215 13.1555 184.553 13.0102 186.892C12.5745 191.641 11.4853 196.46 9.96044 201.279C9.37953 203.193 8.726 205.035 7.99986 206.878C7.27372 208.721 6.62019 210.422 6.03928 212.193C4.87745 215.737 4.0787 219.21 3.71563 222.541C3.5704 224.242 3.49779 225.872 3.64301 227.431C3.78824 228.99 4.15131 230.407 4.95007 231.612C5.67621 232.746 6.83803 233.668 8.07248 233.88C9.30692 234.093 10.614 233.668 11.558 232.959C12.0662 232.604 12.5019 232.179 12.865 231.683C13.0828 231.471 13.2281 231.258 13.3007 231.045C13.3733 230.833 13.4459 230.549 13.5185 230.266C13.6638 229.203 13.4459 228.14 12.9376 227.289C12.4293 226.439 11.6306 225.942 10.7592 226.084C10.3235 226.155 9.96044 226.297 9.59737 226.509C9.30691 226.722 9.01646 227.006 8.87123 227.289C8.58077 227.927 8.58077 228.565 8.79862 229.061C9.01646 229.557 9.37953 229.911 9.7426 230.053C10.1057 230.195 10.3961 230.195 10.614 230.195C10.8318 230.195 10.9044 230.124 10.9044 230.124C10.9044 230.124 10.8318 230.124 10.614 230.195C10.3961 230.195 10.1057 230.266 9.7426 230.124C9.37953 229.982 8.94384 229.699 8.65339 229.132C8.36293 228.636 8.29032 227.856 8.58077 227.147C8.726 226.793 9.01646 226.439 9.37953 226.155C9.7426 225.942 10.1783 225.73 10.6866 225.659C11.1949 225.588 11.7032 225.659 12.2115 225.872C12.7198 226.084 13.1555 226.509 13.4459 227.006C14.0994 227.927 14.3899 229.132 14.3173 230.407C14.3173 230.762 14.2447 231.045 14.0994 231.4C13.9542 231.754 13.7364 232.037 13.5911 232.25C13.2281 232.746 12.7198 233.313 12.2115 233.738C11.1223 234.66 9.59737 235.298 7.92725 235.085C6.25712 234.872 4.80484 233.809 3.78824 232.463C2.77164 231.116 2.33596 229.415 2.11812 227.714C1.90027 226.013 1.90028 224.312 2.0455 222.541C2.33596 219.068 3.13472 215.453 4.22393 211.839C4.80484 209.996 5.45837 208.154 6.11189 206.382C6.76542 204.61 7.41895 202.767 7.99986 200.854C9.52476 196.105 10.614 191.357 11.1223 186.821C11.3401 184.553 11.4127 182.356 11.1949 180.23C11.1223 179.167 10.9044 178.104 10.6866 177.183C10.614 176.97 10.5414 176.687 10.4687 176.474L10.3235 175.978C10.2509 175.907 10.2509 175.694 10.1783 175.694C10.1057 175.765 10.0331 175.836 9.88783 176.049C9.59737 176.474 9.30691 176.97 9.01646 177.395C8.50816 178.317 7.99986 179.238 7.56417 180.088C6.69281 181.931 6.03928 183.703 5.53098 185.404C5.16791 186.609 4.87745 187.813 4.65961 188.947C4.87745 190.01 5.16791 190.861 5.53098 191.641C5.96667 192.633 6.54758 193.341 7.12849 193.838C8.2177 194.83 9.08907 195.113 9.08907 195.113C9.08907 195.113 8.87123 195.042 8.50816 194.901C8.14509 194.759 7.63679 194.546 6.98326 194.05C6.32974 193.625 5.67621 192.916 5.02268 191.995C4.80484 191.641 4.587 191.215 4.36916 190.79C4.22393 192.137 4.0787 193.341 4.00608 194.475C3.93347 197.098 4.0787 199.082 4.22393 200.499C4.36916 201.917 4.51438 202.626 4.51438 202.626C4.51438 202.626 4.29654 201.917 4.0787 200.499C3.78824 199.153 3.49778 197.098 3.42517 194.475C3.42517 192.916 3.42517 191.215 3.71563 189.302C3.64301 189.018 3.49778 188.735 3.42517 188.38C2.69903 185.546 2.62642 181.86 3.35256 177.75C3.5704 176.757 3.86086 175.623 4.15131 174.631C4.44177 173.568 4.73223 172.576 4.95007 171.442C5.16791 170.379 5.31314 169.245 5.31314 168.253C5.38575 165.418 4.587 164.355 4.587 164.355C4.80484 164.355 5.02268 164.213 5.38575 164.213C5.67621 164.213 6.03928 164.284 6.32973 164.426C6.91065 164.638 7.41895 165.064 7.7094 165.56C7.85463 165.772 7.99986 166.127 8.07248 166.339C8.14509 166.552 8.2177 166.764 8.2177 166.977C8.29032 167.402 8.29032 167.757 8.29032 168.111C8.2177 169.528 7.92725 170.733 7.63679 171.867C7.49156 172.292 7.41895 172.718 7.27372 173.072C7.70941 172.505 8.14509 171.796 8.36293 171.229C8.43555 171.088 8.50816 170.875 8.58077 170.733C8.58077 170.662 8.65339 170.592 8.65339 170.521C8.726 170.379 8.726 170.237 8.79862 170.095C8.94384 169.528 9.01646 168.891 9.01646 168.324C9.01646 167.757 9.01646 167.119 9.01646 166.481C9.01646 165.843 9.01646 165.134 9.08907 164.426C9.16169 163.717 9.2343 163.008 9.37953 162.3C9.37953 162.158 9.45214 161.945 9.45214 161.803C9.45214 161.591 9.52476 161.378 9.59737 161.236C9.66998 160.882 9.7426 160.528 9.88783 160.244C10.2509 158.969 10.4687 157.835 10.4687 156.842C10.5414 155.992 10.4687 155.212 10.3235 154.504C10.3235 155.425 10.1783 156.417 9.96044 157.339C9.52476 158.827 8.79862 160.032 7.99986 161.095C7.20111 162.087 6.40235 162.937 5.60359 163.504C4.0787 164.709 2.98949 165.205 2.98949 165.205C2.98949 165.205 3.27994 164.142 3.71563 162.512C3.93347 161.662 4.0787 160.669 4.22393 159.606C4.36916 158.543 4.36915 157.409 4.15131 156.346C4.00608 155.779 3.86086 155.354 3.64301 154.929C3.5704 154.858 3.49778 154.716 3.42517 154.645C3.35256 154.575 3.27994 154.504 3.13472 154.291C2.91687 153.937 2.77164 153.582 2.62642 153.299C2.19073 151.952 2.40857 150.747 2.84426 149.826C3.0621 149.401 3.42517 149.046 3.78824 148.834C3.86086 148.763 3.93347 148.763 4.00608 148.763C3.93347 148.692 3.78824 148.692 3.71563 148.621C3.20733 148.409 2.91687 148.48 2.91687 148.48C2.91687 148.48 3.20733 148.338 3.71563 148.338C4.0787 148.338 4.51438 148.409 5.0953 148.55C5.02268 148.55 4.65961 148.409 5.0953 148.55C5.16791 148.55 5.24052 148.621 5.31314 148.621C5.53098 148.692 5.74882 148.763 5.82144 148.763C6.25712 148.905 6.76542 149.117 7.27372 149.259C7.41895 149.33 7.49156 149.33 7.63679 149.33C7.78202 149.33 7.78202 149.33 7.92725 149.33C8.2177 149.33 8.43555 149.259 8.726 149.188C9.2343 149.046 9.66998 148.692 10.2509 148.196L10.6866 147.842C10.7592 147.771 10.6866 147.842 10.7592 147.842L10.6866 147.771L10.2509 147.416C10.1783 147.346 10.1057 147.346 10.0331 147.275H9.96044C9.52476 146.92 9.08907 146.637 8.65339 146.424C8.14509 146.212 7.63679 146.212 7.20111 146.282C6.76542 146.424 6.25712 146.637 5.82144 146.849C4.95007 147.275 4.15131 147.558 3.64301 147.487C3.0621 147.416 2.84426 147.204 2.84426 147.204C2.84426 147.204 3.13472 147.275 3.64301 147.133C3.78824 147.062 4.00608 146.991 4.15131 146.92C4.00608 146.849 3.86086 146.779 3.71563 146.708C3.35256 146.495 2.98949 146.141 2.77164 145.716C2.26335 144.794 2.11812 143.589 2.5538 142.243C2.69903 141.888 2.84426 141.534 3.0621 141.251C3.20733 141.038 3.27994 140.967 3.35256 140.896C3.42517 140.825 3.49779 140.684 3.5704 140.613C3.78824 140.188 4.00608 139.691 4.0787 139.195C4.29654 138.132 4.22392 136.927 4.15131 135.864C4.00608 134.801 3.78824 133.809 3.64301 132.959C3.27994 131.329 2.91687 130.265 2.91687 130.265C2.91687 130.265 4.00608 130.762 5.53098 131.966C6.25712 132.604 7.12849 133.384 7.92725 134.376C8.726 135.368 9.45214 136.644 9.88783 138.132C10.1783 139.054 10.3235 140.046 10.2509 140.967C10.3961 140.258 10.4687 139.479 10.3961 138.628C10.3235 137.565 10.1057 136.431 9.81521 135.226C9.7426 134.943 9.66998 134.589 9.52476 134.234C9.45214 134.022 9.45214 133.88 9.37953 133.667C9.37953 133.455 9.30692 133.313 9.30692 133.171C9.2343 132.462 9.08907 131.754 9.01646 131.045C8.94384 130.336 8.94384 129.628 8.94384 128.99C8.94384 128.352 8.94384 127.714 8.94384 127.147C8.94384 126.58 8.87123 125.942 8.726 125.375C8.65339 125.234 8.65339 125.092 8.58077 124.95C8.58077 124.879 8.50816 124.808 8.50816 124.737C8.43554 124.596 8.36293 124.383 8.29032 124.241C8.07247 123.674 7.70941 123.107 7.27372 122.54C7.34633 122.753 7.41895 123.036 7.49156 123.249C7.78202 124.383 8.14509 125.659 8.2177 127.076C8.2177 127.431 8.2177 127.856 8.14509 128.21C8.14509 128.423 8.07248 128.635 7.99986 128.848C7.92725 129.061 7.78202 129.344 7.63679 129.628C7.34633 130.124 6.83803 130.62 6.25712 130.832C5.96667 130.974 5.67621 131.045 5.31314 131.045C5.02268 131.045 4.73223 131.045 4.44177 131.045C4.44177 131.045 5.53098 130.124 5.24052 127.076C5.31314 126.084 5.09529 124.95 4.87745 123.887C4.65961 122.824 4.36915 121.761 4.0787 120.769C3.78824 119.776 3.49779 118.713 3.27994 117.65C2.48119 113.54 2.5538 109.925 3.27994 107.019C3.35256 106.665 3.49779 106.24 3.5704 105.886C3.35256 103.901 3.27994 102.129 3.27994 100.57C3.35256 97.9479 3.64301 95.8926 3.93347 94.4751C4.22393 93.0577 4.36916 92.349 4.36916 92.349C4.36916 92.349 4.22393 93.0577 4.0787 94.4751C3.93347 95.8926 3.71563 97.9479 3.86086 100.499C3.93347 101.704 4.00608 102.98 4.22393 104.326C4.36916 103.972 4.587 103.618 4.80484 103.263C5.45837 102.271 6.11189 101.633 6.76542 101.137C7.41895 100.712 7.92725 100.428 8.29032 100.287C8.65339 100.145 8.87123 100.074 8.87123 100.074C8.87123 100.074 8.65339 100.145 8.36293 100.358C7.99986 100.57 7.56418 100.854 6.98326 101.35C6.47496 101.846 5.89405 102.555 5.38575 103.476C5.02268 104.255 4.73222 105.106 4.51438 106.169C4.73222 107.303 5.02268 108.437 5.38575 109.642C5.89405 111.343 6.54758 113.114 7.41895 114.957C7.85463 115.878 8.29032 116.8 8.87123 117.65C9.16169 118.075 9.37953 118.572 9.7426 118.997C9.88783 119.139 9.88783 119.209 10.0331 119.351C10.1057 119.28 10.1783 119.139 10.1783 119.068L10.3235 118.572C10.3961 118.359 10.4687 118.075 10.5414 117.863C10.8318 116.871 10.977 115.878 11.0497 114.815C11.2675 112.689 11.1949 110.492 10.977 108.224C10.4687 103.688 9.37953 99.0109 7.85463 94.1917C7.27372 92.349 6.62019 90.5063 5.96666 88.6637C5.31314 86.8919 4.587 85.0492 4.0787 83.2065C2.98949 79.592 2.19073 75.9776 1.90028 72.434C1.90028 72.0796 1.82766 71.6544 1.82766 71.3C1.90028 82.4269 1.90027 93.5538 1.97289 104.681L2.0455 142.243L1.97289 179.805C1.90027 192.349 1.97289 204.823 1.82766 217.367L1.5372 254.929C1.39198 267.473 1.24675 279.947 1.0289 292.491C0.811062 279.947 0.665833 267.473 0.520607 254.929L0.230152 217.367C0.0849228 204.823 0.157536 192.349 0.0849228 179.805L0.01231 142.243L0.0849228 104.681C0.157536 92.1364 0.0849228 79.6629 0.230152 67.1186L0.520607 29.5565L0.738449 10.7754C0.738449 10.3502 1.17413 0.924225 1.24675 0.924225ZM4.65961 148.692C4.36915 148.976 4.0787 149.33 4.00608 149.897C3.86086 150.606 4.00608 151.527 4.44177 152.377C4.51438 152.59 4.65961 152.732 4.80484 152.874C4.80484 152.874 5.02268 153.086 5.0953 153.228C5.24052 153.37 5.31314 153.511 5.45837 153.653C5.89405 154.291 6.18451 155 6.32973 155.779C6.62019 157.268 6.40235 158.685 6.03928 159.89C5.67621 161.024 5.24052 161.945 4.80484 162.654C5.82144 161.166 7.12849 159.039 7.85463 156.63C8.2177 155.425 8.43555 154.22 8.36293 153.157C8.29032 152.165 8.07248 151.314 7.7094 150.606H7.63679C7.49156 150.535 7.34633 150.464 7.20111 150.393C6.69281 150.11 6.25712 149.755 5.82144 149.543C5.31314 149.117 4.95007 148.905 4.65961 148.692ZM7.85463 138.203C7.12849 135.793 5.82144 133.667 4.80484 132.179C5.24052 132.959 5.67621 133.88 6.03928 134.943C6.40235 136.077 6.62019 137.494 6.32973 139.054C6.18451 139.833 5.89405 140.542 5.45837 141.18C5.31314 141.321 5.24052 141.463 5.0953 141.605C4.95007 141.747 4.80484 141.888 4.80484 141.959C4.65961 142.101 4.51438 142.243 4.44177 142.455C4.00608 143.235 3.86086 144.227 4.00608 144.936C4.0787 145.574 4.44177 145.999 4.80484 146.212C5.09529 145.999 5.38575 145.786 5.74882 145.503C6.18451 145.149 6.62019 144.794 7.12849 144.511C7.34633 144.44 7.49156 144.369 7.7094 144.298C8.07248 143.589 8.29032 142.739 8.36293 141.747C8.36293 140.613 8.2177 139.408 7.85463 138.203ZM11.1223 125.021C11.1223 125.092 11.1223 125.163 11.1949 125.304C11.1949 125.446 11.2675 125.659 11.2675 125.801C11.3401 126.438 11.2675 127.076 11.1223 127.643C10.9044 128.777 10.614 129.84 10.614 131.045C10.614 131.612 10.614 132.25 10.6866 132.888C10.6866 133.029 10.6866 133.171 10.6866 133.313C10.6866 133.384 10.6866 133.526 10.7592 133.667C10.8318 133.951 10.9044 134.234 10.977 134.589C11.2675 135.793 11.4127 137.069 11.3401 138.132C11.3401 140.046 10.7592 141.534 10.0331 142.526C9.81521 143.164 9.52476 143.731 9.16169 144.227C9.81521 144.369 10.4687 144.723 11.0497 145.149L12.3567 146.07C13.0102 146.495 13.809 146.92 14.4625 147.346C13.809 147.771 13.0102 148.196 12.3567 148.55C12.2115 148.621 12.0662 148.763 11.921 148.834L11.4853 149.117L11.0497 149.472C10.4687 149.897 9.81521 150.322 9.08907 150.464C9.45214 150.96 9.7426 151.527 9.88783 152.165C10.5414 153.157 11.1223 154.716 11.1949 156.559C11.1949 157.622 11.0497 158.898 10.8318 160.103C10.7592 160.386 10.6866 160.74 10.614 161.024C10.614 161.166 10.5414 161.307 10.5414 161.378C10.5414 161.52 10.5414 161.662 10.5414 161.803C10.5414 162.441 10.4687 163.008 10.4687 163.646C10.4687 164.851 10.7592 165.843 10.977 167.048C11.0497 167.615 11.1223 168.253 11.1223 168.891C11.1223 169.032 11.1223 169.245 11.0497 169.387C11.0497 169.458 11.0497 169.528 10.977 169.67C11.0497 169.599 11.0497 169.599 11.1223 169.528C11.2675 169.458 11.4127 169.316 11.4853 169.245C11.7758 169.032 11.9936 168.891 12.2841 168.678C13.2281 167.898 14.1721 167.119 14.9708 166.197C16.5683 164.497 17.7302 162.654 18.1658 160.811C18.3837 159.89 18.5289 159.039 18.4563 158.26C18.4563 157.905 18.3837 157.48 18.3111 157.126C18.2385 156.772 18.0932 156.488 17.948 156.205C17.3671 155.071 16.4231 154.22 15.5517 153.511C14.6804 152.803 13.809 152.236 13.0102 151.669C12.2115 151.102 11.558 150.606 10.977 150.18C10.9044 150.11 10.8318 150.039 10.7592 149.968C11.0497 149.755 11.3401 149.613 11.558 149.401C12.4293 149.755 13.3733 150.18 14.4625 150.535C15.697 151.031 17.004 151.598 18.3837 152.023C18.7467 152.165 19.1098 152.236 19.4003 152.307C19.5455 152.307 19.7633 152.377 19.836 152.377H20.4169C21.143 152.377 21.9418 152.236 22.6679 152.023C24.1202 151.598 25.4999 150.677 26.9521 149.543C27.6783 148.976 28.477 148.409 29.2758 147.842L29.9293 147.416L30.2198 147.204L30.0746 147.133L29.7841 146.92L29.2032 146.495L26.8795 144.865C25.3546 143.802 23.9024 142.952 22.4501 142.455C21.7239 142.243 20.9252 142.101 20.199 142.101C19.836 142.101 19.4729 142.101 19.1098 142.172C18.7467 142.243 18.4563 142.314 18.0932 142.385C16.7136 142.81 15.4791 143.448 14.3173 144.085C13.4459 144.511 12.5746 144.936 11.7758 145.29C11.6306 145.149 11.4127 145.078 11.2675 144.936C11.0497 144.794 10.8318 144.652 10.614 144.582C10.6866 144.511 10.7592 144.44 10.9044 144.298C11.4127 143.873 12.1389 143.306 12.9376 142.81C13.7364 142.243 14.6077 141.676 15.4791 140.967C16.3505 140.258 17.2945 139.408 17.8754 138.274C18.0206 137.99 18.1658 137.707 18.2385 137.353C18.3111 136.998 18.3837 136.644 18.3837 136.219C18.4563 135.439 18.3111 134.589 18.0932 133.667C17.5849 131.895 16.4231 129.982 14.8982 128.281C14.0994 127.431 13.1555 126.58 12.2115 125.801C11.9936 125.588 11.7032 125.375 11.4127 125.234C11.2675 125.163 11.1223 125.021 11.0497 124.95C11.1949 125.092 11.1949 125.092 11.1223 125.021Z" fill="url(#paint0_linear_155_65474)"/>
<defs>
<linearGradient id="paint0_linear_155_65474" x1="34.9397" y1="146.708" x2="0.01231" y2="146.708" gradientUnits="userSpaceOnUse">
<stop stop-color="#F7C631"/>
<stop offset="0.463542" stop-color="#FFF9AB"/>
<stop offset="1" stop-color="#F7CA3A"/>
</linearGradient>
</defs>
</svg>
