<svg width="35" height="292" viewBox="0 0 35 292" fill="none" xmlns="http://www.w3.org/2000/svg">
<path d="M33.7533 0.696198L33.608 10.0513L33.3902 28.8324L33.0997 66.3945C33.0997 67.1032 33.0997 67.8828 33.0997 68.5915C33.0997 67.8828 33.0271 67.2449 32.9545 66.5362C32.7367 64.8353 32.2284 63.1344 31.2844 61.7878C30.3404 60.4412 28.8155 59.3781 27.1454 59.1655C25.4752 58.9529 23.9503 59.5907 22.8611 60.5121C22.2802 60.9373 21.8445 61.5043 21.4815 62.0004C21.3362 62.2839 21.1184 62.5674 20.9732 62.8509C20.8279 63.2052 20.7553 63.4887 20.7553 63.8431C20.6101 65.1188 20.9732 66.3236 21.6267 67.2449C21.9172 67.741 22.3528 68.0954 22.8611 68.3789C23.3694 68.5915 23.9503 68.6624 24.386 68.5915C24.8943 68.5206 25.2574 68.308 25.6931 68.0954C26.0562 67.8119 26.3466 67.5284 26.4918 67.1032C26.7823 66.3945 26.7097 65.6149 26.4192 65.1188C26.1288 64.6227 25.6931 64.2683 25.33 64.1266C24.9669 63.9848 24.6039 64.0557 24.4586 64.0557C24.2408 64.0557 24.1682 64.1266 24.1682 64.1266C24.1682 64.1266 24.2408 64.1266 24.4586 64.0557C24.6765 64.0557 24.9669 64.0557 25.33 64.1974C25.6931 64.3392 26.0562 64.6227 26.274 65.1896C26.4918 65.6857 26.5645 66.3236 26.2014 66.9614C26.0562 67.2449 25.8383 67.5284 25.4752 67.741C25.1122 67.9536 24.7491 68.0954 24.3134 68.1663C23.5147 68.308 22.6433 67.8119 22.135 66.9614C21.6267 66.111 21.4089 65.0479 21.5541 63.9848C21.6267 63.7013 21.6993 63.4887 21.7719 63.2052C21.8445 62.9926 22.0624 62.78 22.2076 62.5674C22.5707 62.0713 23.0064 61.646 23.5147 61.2917C24.4586 60.583 25.7657 60.1577 27.0001 60.3704C28.2346 60.583 29.3964 61.4334 30.1225 62.6382C30.9213 63.8431 31.2844 65.2605 31.4296 66.8197C31.5748 68.3789 31.5022 70.0089 31.357 71.7099C30.9939 75.0408 30.1225 78.5136 29.0333 82.0572C28.4524 83.8289 27.7989 85.5299 27.0728 87.3725C26.3466 89.2152 25.6931 91.0579 25.1122 92.9714C23.5873 97.7907 22.4254 102.681 22.0624 107.358C21.8445 109.697 21.8445 112.036 22.135 114.304C22.2802 115.438 22.4981 116.572 22.7885 117.635C22.8611 117.918 22.9338 118.202 23.079 118.414L23.2242 118.84C23.2968 118.981 23.3694 119.265 23.442 119.407C23.8051 120.257 24.3134 120.895 24.7491 121.391L25.6205 120.257C25.9109 119.903 26.2014 119.477 26.4192 119.123C26.7097 118.627 27.0001 118.131 27.218 117.706C27.7263 116.714 28.162 115.792 28.5976 114.8C29.3964 112.886 29.9773 111.044 30.413 109.272C30.4856 109.059 30.4856 108.918 30.5582 108.705C30.5582 110.973 30.2678 113.524 29.469 116.288C29.1786 117.21 28.8881 118.131 28.4524 119.194C28.162 119.903 27.8715 120.682 27.6537 121.533C27.5811 121.533 27.5084 121.604 27.5084 121.604C26.1288 122.171 24.8217 122.95 23.7325 123.659C23.3694 123.872 23.0064 124.155 22.6433 124.368C22.3528 124.58 22.135 124.722 21.8445 124.935C20.8279 125.714 19.884 126.565 18.94 127.486C17.1972 129.329 15.8176 131.597 15.2367 133.865C14.9462 134.998 14.9462 136.132 15.0914 137.054C15.164 137.55 15.2367 137.975 15.4545 138.4C15.5997 138.826 15.8176 139.18 16.0354 139.534C16.5437 140.243 17.1246 140.739 17.7055 141.164C17.5603 141.093 17.4151 141.023 17.2698 140.952C16.9068 140.81 16.4711 140.668 16.0354 140.597C15.5997 140.526 15.164 140.456 14.7284 140.456C13.857 140.385 12.913 140.526 11.969 140.739C10.1537 141.164 8.41093 142.157 6.81342 143.149L4.48976 144.708L3.90885 145.062L3.1101 145.558C2.31134 146.054 1.29474 146.551 0.350759 147.047L0.0603027 147.188C0.931672 147.685 1.87566 148.11 2.74703 148.606L3.40055 148.96L3.69101 149.173L4.27192 149.527C5.07068 150.023 5.79682 150.59 6.59557 151.086C7.39433 151.653 8.12047 152.149 8.99184 152.646C9.86321 153.071 10.7346 153.496 11.6786 153.709C12.6225 153.921 13.4939 153.992 14.3653 153.992C14.5831 153.992 14.801 153.992 15.0188 153.992C15.3093 153.992 15.5271 153.921 15.745 153.85C16.1806 153.709 16.5437 153.567 16.9068 153.425C17.5603 153.142 18.2138 152.858 18.7947 152.575C17.8508 153.142 16.8342 153.779 15.9628 154.913C15.745 155.197 15.5271 155.622 15.3819 156.047C15.2367 156.473 15.0914 156.898 15.0188 157.394C14.8736 158.386 14.9462 159.449 15.164 160.583C15.6723 162.851 17.1246 165.119 18.8674 166.962C19.7387 167.883 20.6827 168.733 21.7719 169.513C22.0624 169.726 22.2802 169.867 22.5707 170.08C22.9337 170.293 23.2968 170.576 23.6599 170.789C24.7491 171.497 26.1288 172.277 27.4358 172.844C27.5084 172.915 27.5811 172.915 27.6537 172.986C27.8715 173.624 28.0894 174.261 28.3072 174.899C28.6703 175.962 29.0333 176.813 29.3238 177.805C30.1225 180.498 30.4856 183.05 30.4856 185.317C30.413 185.105 30.413 184.963 30.3404 184.751C29.9047 182.979 29.3238 181.065 28.525 179.223C28.0894 178.301 27.6537 177.309 27.1454 176.317C26.8549 175.821 26.6371 175.325 26.3466 174.899C26.1288 174.545 25.8383 174.12 25.5479 173.765L24.6765 172.631C24.2408 173.128 23.7325 173.765 23.3694 174.616C23.2968 174.828 23.1516 175.041 23.1516 175.183L23.0064 175.608C22.9338 175.892 22.8611 176.104 22.7159 176.388C22.4255 177.451 22.2076 178.585 22.0624 179.719C21.7719 181.987 21.8445 184.325 21.9898 186.664C22.4255 191.412 23.5147 196.232 25.0396 201.051C25.6205 202.965 26.274 204.807 27.0001 206.65C27.7263 208.493 28.3798 210.194 28.9607 211.965C30.1225 215.509 30.9213 218.982 31.2844 222.313C31.4296 224.014 31.5022 225.644 31.357 227.203C31.2118 228.762 30.8487 230.179 30.0499 231.384C29.3238 232.518 28.162 233.44 26.9275 233.652C25.6931 233.865 24.386 233.44 23.442 232.731C22.9338 232.376 22.4981 231.951 22.135 231.455C21.9172 231.242 21.7719 231.03 21.6993 230.817C21.6267 230.605 21.5541 230.321 21.4815 230.038C21.3362 228.975 21.5541 227.911 22.0624 227.061C22.5707 226.211 23.3694 225.714 24.2408 225.856C24.6765 225.927 25.0396 226.069 25.4026 226.281C25.6931 226.494 25.9835 226.778 26.1288 227.061C26.4192 227.699 26.4192 228.337 26.2014 228.833C25.9835 229.329 25.6205 229.683 25.2574 229.825C24.8943 229.967 24.6039 229.967 24.386 229.967C24.1682 229.967 24.0956 229.896 24.0956 229.896C24.0956 229.896 24.1682 229.896 24.386 229.967C24.6039 229.967 24.8943 230.038 25.2574 229.896C25.6205 229.754 26.0562 229.471 26.3466 228.904C26.6371 228.408 26.7097 227.628 26.4192 226.919C26.274 226.565 25.9835 226.211 25.6205 225.927C25.2574 225.714 24.8217 225.502 24.3134 225.431C23.8051 225.36 23.2968 225.431 22.7885 225.644C22.2802 225.856 21.8445 226.281 21.5541 226.778C20.9006 227.699 20.6101 228.904 20.6827 230.179C20.6827 230.534 20.7553 230.817 20.9006 231.172C21.0458 231.526 21.2636 231.809 21.4089 232.022C21.7719 232.518 22.2802 233.085 22.7885 233.51C23.8777 234.432 25.4026 235.07 27.0728 234.857C28.7429 234.644 30.1952 233.581 31.2118 232.235C32.2284 230.888 32.664 229.187 32.8819 227.486C33.0997 225.785 33.0997 224.084 32.9545 222.313C32.664 218.84 31.8653 215.225 30.7761 211.611C30.1952 209.768 29.5416 207.926 28.8881 206.154C28.2346 204.382 27.5811 202.539 27.0001 200.626C25.4752 195.877 24.386 191.129 23.8777 186.593C23.6599 184.325 23.5873 182.128 23.8051 180.002C23.8777 178.939 24.0956 177.876 24.3134 176.955C24.386 176.742 24.4586 176.459 24.5313 176.246L24.6765 175.75C24.7491 175.679 24.7491 175.466 24.8217 175.466C24.8943 175.537 24.9669 175.608 25.1122 175.821C25.4026 176.246 25.6931 176.742 25.9835 177.167C26.4918 178.089 27.0001 179.01 27.4358 179.86C28.3072 181.703 28.9607 183.475 29.469 185.176C29.8321 186.381 30.1225 187.585 30.3404 188.719C30.1225 189.782 29.8321 190.633 29.469 191.412C29.0333 192.405 28.4524 193.113 27.8715 193.61C26.7823 194.602 25.9109 194.885 25.9109 194.885C25.9109 194.885 26.1288 194.814 26.4918 194.673C26.8549 194.531 27.3632 194.318 28.0167 193.822C28.6703 193.397 29.3238 192.688 29.9773 191.767C30.1952 191.412 30.413 190.987 30.6308 190.562C30.7761 191.909 30.9213 193.113 30.9939 194.247C31.0665 196.87 30.9213 198.854 30.7761 200.271C30.6308 201.689 30.4856 202.398 30.4856 202.398C30.4856 202.398 30.7035 201.689 30.9213 200.271C31.2118 198.925 31.5022 196.87 31.5748 194.247C31.5748 192.688 31.5748 190.987 31.2844 189.074C31.357 188.79 31.5022 188.507 31.5748 188.152C32.301 185.317 32.3736 181.632 31.6474 177.522C31.4296 176.529 31.1391 175.395 30.8487 174.403C30.5582 173.34 30.2678 172.348 30.0499 171.214C29.8321 170.151 29.6869 169.017 29.6869 168.025C29.6142 165.19 30.413 164.127 30.413 164.127C30.1952 164.127 29.9773 163.985 29.6142 163.985C29.3238 163.985 28.9607 164.056 28.6703 164.198C28.0894 164.41 27.5811 164.836 27.2906 165.332C27.1454 165.544 27.0001 165.899 26.9275 166.111C26.8549 166.324 26.7823 166.536 26.7823 166.749C26.7097 167.174 26.7097 167.529 26.7097 167.883C26.7823 169.3 27.0728 170.505 27.3632 171.639C27.5084 172.064 27.5811 172.49 27.7263 172.844C27.2906 172.277 26.8549 171.568 26.6371 171.001C26.5645 170.86 26.4918 170.647 26.4192 170.505C26.4192 170.434 26.3466 170.364 26.3466 170.293C26.274 170.151 26.274 170.009 26.2014 169.867C26.0562 169.3 25.9835 168.663 25.9835 168.096C25.9835 167.529 25.9835 166.891 25.9835 166.253C25.9835 165.615 25.9835 164.906 25.9109 164.198C25.8383 163.489 25.7657 162.78 25.6205 162.072C25.6205 161.93 25.5479 161.717 25.5479 161.575C25.5479 161.363 25.4752 161.15 25.4026 161.008C25.33 160.654 25.2574 160.3 25.1122 160.016C24.7491 158.741 24.5313 157.607 24.5313 156.614C24.4586 155.764 24.5313 154.984 24.6765 154.276C24.6765 155.197 24.8217 156.189 25.0396 157.11C25.4752 158.599 26.2014 159.804 27.0001 160.867C27.7989 161.859 28.5977 162.709 29.3964 163.276C30.9213 164.481 32.0105 164.977 32.0105 164.977C32.0105 164.977 31.7201 163.914 31.2844 162.284C31.0665 161.434 30.9213 160.441 30.7761 159.378C30.6308 158.315 30.6308 157.181 30.8487 156.118C30.9939 155.551 31.1391 155.126 31.357 154.701C31.4296 154.63 31.5022 154.488 31.5748 154.417C31.6474 154.346 31.7201 154.276 31.8653 154.063C32.0831 153.709 32.2284 153.354 32.3736 153.071C32.8093 151.724 32.5914 150.519 32.1557 149.598C31.9379 149.173 31.5748 148.818 31.2118 148.606C31.1391 148.535 31.0665 148.535 30.9939 148.535C31.0665 148.464 31.2118 148.464 31.2844 148.393C31.7927 148.181 32.0831 148.251 32.0831 148.251C32.0831 148.251 31.7927 148.11 31.2844 148.11C30.9213 148.11 30.4856 148.181 29.9047 148.322C29.9773 148.322 30.3404 148.181 29.9047 148.322C29.8321 148.322 29.7595 148.393 29.6869 148.393C29.469 148.464 29.2512 148.535 29.1786 148.535C28.7429 148.677 28.2346 148.889 27.7263 149.031C27.5811 149.102 27.5084 149.102 27.3632 149.102C27.218 149.102 27.218 149.102 27.0728 149.102C26.7823 149.102 26.5645 149.031 26.274 148.96C25.7657 148.818 25.33 148.464 24.7491 147.968L24.3134 147.614C24.2408 147.543 24.3134 147.614 24.2408 147.614L24.3134 147.543L24.7491 147.188C24.8217 147.118 24.8943 147.118 24.9669 147.047H25.0396C25.4752 146.692 25.9109 146.409 26.3466 146.196C26.8549 145.984 27.3632 145.984 27.7989 146.054C28.2346 146.196 28.7429 146.409 29.1786 146.621C30.0499 147.047 30.8487 147.33 31.357 147.259C31.9379 147.188 32.1557 146.976 32.1557 146.976C32.1557 146.976 31.8653 147.047 31.357 146.905C31.2118 146.834 30.9939 146.763 30.8487 146.692C30.9939 146.621 31.1391 146.551 31.2844 146.48C31.6474 146.267 32.0105 145.913 32.2284 145.487C32.7367 144.566 32.8819 143.361 32.4462 142.015C32.301 141.66 32.1557 141.306 31.9379 141.023C31.7927 140.81 31.7201 140.739 31.6474 140.668C31.5748 140.597 31.5022 140.456 31.4296 140.385C31.2118 139.959 30.9939 139.463 30.9213 138.967C30.7035 137.904 30.7761 136.699 30.8487 135.636C30.9939 134.573 31.2118 133.581 31.357 132.731C31.7201 131.1 32.0831 130.037 32.0831 130.037C32.0831 130.037 30.9939 130.534 29.469 131.738C28.7429 132.376 27.8715 133.156 27.0728 134.148C26.274 135.14 25.5479 136.416 25.1122 137.904C24.8217 138.826 24.6765 139.818 24.7491 140.739C24.6039 140.03 24.5313 139.251 24.6039 138.4C24.6765 137.337 24.8943 136.203 25.1848 134.998C25.2574 134.715 25.33 134.361 25.4752 134.006C25.5479 133.794 25.5479 133.652 25.6205 133.439C25.6205 133.227 25.6931 133.085 25.6931 132.943C25.7657 132.234 25.9109 131.526 25.9835 130.817C26.0562 130.108 26.0562 129.4 26.0562 128.762C26.0562 128.124 26.0562 127.486 26.0562 126.919C26.0562 126.352 26.1288 125.714 26.274 125.147C26.3466 125.006 26.3466 124.864 26.4192 124.722C26.4192 124.651 26.4918 124.58 26.4918 124.509C26.5645 124.368 26.6371 124.155 26.7097 124.013C26.9275 123.446 27.2906 122.879 27.7263 122.312C27.6537 122.525 27.5811 122.808 27.5084 123.021C27.218 124.155 26.8549 125.431 26.7823 126.848C26.7823 127.203 26.7823 127.628 26.8549 127.982C26.8549 128.195 26.9275 128.407 27.0001 128.62C27.0728 128.833 27.218 129.116 27.3632 129.4C27.6537 129.896 28.162 130.392 28.7429 130.604C29.0333 130.746 29.3238 130.817 29.6869 130.817C29.9773 130.817 30.2678 130.817 30.5582 130.817C30.5582 130.817 29.469 129.896 29.7595 126.848C29.6869 125.856 29.9047 124.722 30.1225 123.659C30.3404 122.596 30.6308 121.533 30.9213 120.541C31.2118 119.548 31.5022 118.485 31.7201 117.422C32.5188 113.312 32.4462 109.697 31.7201 106.791C31.6474 106.437 31.5022 106.012 31.4296 105.657C31.6474 103.673 31.7201 101.901 31.7201 100.342C31.6474 97.7198 31.357 95.6646 31.0665 94.2471C30.7761 92.8297 30.6308 92.121 30.6308 92.121C30.6308 92.121 30.7761 92.8297 30.9213 94.2471C31.0665 95.6646 31.2844 97.7198 31.1391 100.271C31.0665 101.476 30.9939 102.752 30.7761 104.098C30.6308 103.744 30.413 103.39 30.1952 103.035C29.5416 102.043 28.8881 101.405 28.2346 100.909C27.5811 100.484 27.0728 100.2 26.7097 100.059C26.3466 99.9169 26.1288 99.846 26.1288 99.846C26.1288 99.846 26.3466 99.9169 26.6371 100.129C27.0001 100.342 27.4358 100.626 28.0167 101.122C28.525 101.618 29.1059 102.327 29.6142 103.248C29.9773 104.027 30.2678 104.878 30.4856 105.941C30.2678 107.075 29.9773 108.209 29.6142 109.414C29.1059 111.115 28.4524 112.886 27.5811 114.729C27.1454 115.65 26.7097 116.572 26.1288 117.422C25.8383 117.847 25.6205 118.344 25.2574 118.769C25.1122 118.911 25.1122 118.981 24.9669 119.123C24.8943 119.052 24.8217 118.911 24.8217 118.84L24.6765 118.344C24.6039 118.131 24.5313 117.847 24.4586 117.635C24.1682 116.643 24.023 115.65 23.9503 114.587C23.7325 112.461 23.8051 110.264 24.023 107.996C24.5313 103.46 25.6205 98.7829 27.1454 93.9636C27.7263 92.121 28.3798 90.2783 29.0333 88.4356C29.6869 86.6638 30.413 84.8212 30.9213 82.9785C32.0105 79.364 32.8093 75.7495 33.0997 72.2059C33.0997 71.8516 33.1723 71.4264 33.1723 71.072C33.0997 82.1989 33.0997 93.3258 33.0271 104.453L32.9545 142.015L33.0271 179.577C33.0997 192.121 33.0271 204.595 33.1723 217.139L33.4628 254.701C33.608 267.245 33.7533 279.719 33.9711 292.263C34.1889 279.719 34.3342 267.245 34.4794 254.701L34.7698 217.139C34.9151 204.595 34.8425 192.121 34.9151 179.577L34.9877 142.015L34.9151 104.453C34.8425 91.9083 34.9151 79.4349 34.7698 66.8905L34.4794 29.3285L34.2616 10.5474C34.2616 10.1222 33.8259 0.696198 33.7533 0.696198ZM30.3404 148.464C30.6308 148.748 30.9213 149.102 30.9939 149.669C31.1391 150.378 30.9939 151.299 30.5582 152.149C30.4856 152.362 30.3404 152.504 30.1952 152.646C30.1952 152.646 29.9773 152.858 29.9047 153C29.7595 153.142 29.6869 153.283 29.5416 153.425C29.1059 154.063 28.8155 154.772 28.6703 155.551C28.3798 157.04 28.5976 158.457 28.9607 159.662C29.3238 160.796 29.7595 161.717 30.1952 162.426C29.1786 160.938 27.8715 158.811 27.1454 156.402C26.7823 155.197 26.5645 153.992 26.6371 152.929C26.7097 151.937 26.9275 151.086 27.2906 150.378H27.3632C27.5084 150.307 27.6537 150.236 27.7989 150.165C28.3072 149.882 28.7429 149.527 29.1786 149.315C29.6869 148.889 30.0499 148.677 30.3404 148.464ZM27.1454 137.975C27.8715 135.565 29.1786 133.439 30.1952 131.951C29.7595 132.731 29.3238 133.652 28.9607 134.715C28.5976 135.849 28.3798 137.266 28.6703 138.826C28.8155 139.605 29.1059 140.314 29.5416 140.952C29.6869 141.093 29.7595 141.235 29.9047 141.377C30.0499 141.519 30.1952 141.66 30.1952 141.731C30.3404 141.873 30.4856 142.015 30.5582 142.227C30.9939 143.007 31.1391 143.999 30.9939 144.708C30.9213 145.346 30.5582 145.771 30.1952 145.984C29.9047 145.771 29.6142 145.558 29.2512 145.275C28.8155 144.921 28.3798 144.566 27.8715 144.283C27.6537 144.212 27.5084 144.141 27.2906 144.07C26.9275 143.361 26.7097 142.511 26.6371 141.519C26.6371 140.385 26.7823 139.18 27.1454 137.975ZM23.8777 124.793C23.8777 124.864 23.8777 124.935 23.8051 125.076C23.8051 125.218 23.7325 125.431 23.7325 125.572C23.6599 126.21 23.7325 126.848 23.8777 127.415C24.0956 128.549 24.386 129.612 24.386 130.817C24.386 131.384 24.386 132.022 24.3134 132.66C24.3134 132.801 24.3134 132.943 24.3134 133.085C24.3134 133.156 24.3134 133.298 24.2408 133.439C24.1682 133.723 24.0956 134.006 24.023 134.361C23.7325 135.565 23.5873 136.841 23.6599 137.904C23.6599 139.818 24.2408 141.306 24.9669 142.298C25.1848 142.936 25.4752 143.503 25.8383 143.999C25.1848 144.141 24.5313 144.495 23.9503 144.921L22.6433 145.842C21.9898 146.267 21.191 146.692 20.5375 147.118C21.191 147.543 21.9898 147.968 22.6433 148.322C22.7885 148.393 22.9338 148.535 23.079 148.606L23.5147 148.889L23.9503 149.244C24.5313 149.669 25.1848 150.094 25.9109 150.236C25.5479 150.732 25.2574 151.299 25.1122 151.937C24.4586 152.929 23.8777 154.488 23.8051 156.331C23.8051 157.394 23.9503 158.67 24.1682 159.874C24.2408 160.158 24.3134 160.512 24.386 160.796C24.386 160.938 24.4586 161.079 24.4586 161.15C24.4586 161.292 24.4586 161.434 24.4586 161.575C24.4586 162.213 24.5313 162.78 24.5313 163.418C24.5313 164.623 24.2408 165.615 24.023 166.82C23.9503 167.387 23.8777 168.025 23.8777 168.663C23.8777 168.804 23.8777 169.017 23.9503 169.159C23.9503 169.23 23.9503 169.3 24.023 169.442C23.9503 169.371 23.9503 169.371 23.8777 169.3C23.7325 169.23 23.5873 169.088 23.5147 169.017C23.2242 168.804 23.0064 168.663 22.7159 168.45C21.7719 167.67 20.8279 166.891 20.0292 165.969C18.4317 164.269 17.2698 162.426 16.8342 160.583C16.6163 159.662 16.4711 158.811 16.5437 158.032C16.5437 157.677 16.6163 157.252 16.6889 156.898C16.7615 156.544 16.9068 156.26 17.052 155.977C17.6329 154.843 18.5769 153.992 19.4483 153.283C20.3196 152.575 21.191 152.008 21.9898 151.441C22.7885 150.874 23.442 150.378 24.023 149.952C24.0956 149.882 24.1682 149.811 24.2408 149.74C23.9503 149.527 23.6599 149.385 23.442 149.173C22.5707 149.527 21.6267 149.952 20.5375 150.307C19.303 150.803 17.996 151.37 16.6163 151.795C16.2533 151.937 15.8902 152.008 15.5997 152.079C15.4545 152.079 15.2367 152.149 15.164 152.149H14.5831C13.857 152.149 13.0582 152.008 12.3321 151.795C10.8798 151.37 9.50014 150.449 8.04786 149.315C7.32171 148.748 6.52296 148.181 5.7242 147.614L5.07068 147.188L4.78022 146.976L4.92545 146.905L5.2159 146.692L5.79682 146.267L8.12047 144.637C9.64537 143.574 11.0976 142.723 12.5499 142.227C13.2761 142.015 14.0748 141.873 14.801 141.873C15.164 141.873 15.5271 141.873 15.8902 141.944C16.2533 142.015 16.5437 142.086 16.9068 142.157C18.2864 142.582 19.5209 143.22 20.6827 143.857C21.5541 144.283 22.4254 144.708 23.2242 145.062C23.3694 144.921 23.5873 144.85 23.7325 144.708C23.9503 144.566 24.1682 144.424 24.386 144.354C24.3134 144.283 24.2408 144.212 24.0956 144.07C23.5873 143.645 22.8611 143.078 22.0624 142.582C21.2636 142.015 20.3923 141.448 19.5209 140.739C18.6495 140.03 17.7055 139.18 17.1246 138.046C16.9794 137.762 16.8342 137.479 16.7615 137.125C16.6889 136.77 16.6163 136.416 16.6163 135.991C16.5437 135.211 16.6889 134.361 16.9068 133.439C17.4151 131.667 18.5769 129.754 20.1018 128.053C20.9006 127.203 21.8445 126.352 22.7885 125.572C23.0064 125.36 23.2968 125.147 23.5873 125.006C23.7325 124.935 23.8777 124.793 23.9503 124.722C23.8051 124.864 23.8051 124.864 23.8777 124.793Z" fill="url(#paint0_linear_155_65456)"/>
<defs>
<linearGradient id="paint0_linear_155_65456" x1="0.0603027" y1="146.48" x2="34.9877" y2="146.48" gradientUnits="userSpaceOnUse">
<stop stop-color="#F7C631"/>
<stop offset="0.463542" stop-color="#FFF9AB"/>
<stop offset="1" stop-color="#F7CA3A"/>
</linearGradient>
</defs>
</svg>
