<svg width="34" height="292" viewBox="0 0 34 292" fill="none" xmlns="http://www.w3.org/2000/svg">
<path fill-rule="evenodd" clip-rule="evenodd" d="M33.5713 10.0635L33.7165 0.708405C33.7891 0.708405 34.2248 10.1344 34.2248 10.5596L34.4426 29.3407L34.7331 66.9028C34.8202 74.43 34.829 81.9317 34.8377 89.4385C34.8435 94.442 34.8493 99.4478 34.8783 104.465L34.9509 142.027L34.8783 179.589C34.8493 184.606 34.8435 189.612 34.8377 194.615C34.829 202.122 34.8202 209.624 34.7331 217.151L34.5933 235.236H33.2754L33.1356 217.151C33.0485 209.624 33.0397 202.123 33.031 194.616C33.0252 189.612 33.0194 184.606 32.9904 179.589L32.9178 142.027L32.9904 104.465C33.0267 98.9013 33.0448 93.3377 33.063 87.7741C33.0811 82.2225 33.0992 76.6709 33.1354 71.1192C33.1332 71.2869 33.1163 71.4691 33.0993 71.6512C33.0811 71.8461 33.063 72.041 33.063 72.2182C32.7725 75.7617 31.9738 79.3762 30.8846 82.9907C30.4651 84.5113 29.8973 86.0318 29.3444 87.5126C29.2273 87.8262 29.1108 88.1381 28.9966 88.4478L28.9963 88.4487C28.3429 90.2911 27.6895 92.1334 27.1086 93.9758C25.5837 98.7951 24.4945 103.473 23.9862 108.008C23.7684 110.276 23.6958 112.473 23.9136 114.6C23.9862 115.663 24.1314 116.655 24.4219 117.647C24.4582 117.753 24.4945 117.877 24.5308 118.001C24.5671 118.125 24.6034 118.249 24.6397 118.356L24.785 118.852C24.785 118.923 24.8576 119.064 24.9302 119.135C25.0028 119.064 25.0391 119.011 25.0754 118.958C25.1117 118.905 25.148 118.852 25.2207 118.781C25.4461 118.517 25.6155 118.226 25.7811 117.941C25.8822 117.767 25.9819 117.596 26.092 117.434C26.6729 116.584 27.1086 115.663 27.5443 114.741C28.4157 112.899 29.0692 111.127 29.5775 109.426C29.9406 108.221 30.231 107.087 30.4489 105.953C30.231 104.89 29.9406 104.04 29.5775 103.26C29.0692 102.339 28.4883 101.63 27.98 101.134C27.3991 100.638 26.9634 100.354 26.6003 100.142C26.3099 99.9291 26.092 99.8582 26.092 99.8582C26.092 99.8582 26.3099 99.9291 26.6729 100.071C27.036 100.213 27.5443 100.496 28.1978 100.921C28.8514 101.417 29.5049 102.055 30.1584 103.047C30.3763 103.402 30.5941 103.756 30.7393 104.111C30.9508 102.803 31.0254 101.563 31.096 100.39L31.1024 100.283C31.2451 97.7757 31.0371 95.7472 30.8921 94.3326L30.8846 94.2593C30.7393 92.8419 30.5941 92.1332 30.5941 92.1332L31.0298 94.2593C31.3202 95.6768 31.6107 97.732 31.6833 100.354C31.6833 101.913 31.6107 103.685 31.3929 105.67C31.4292 105.847 31.4836 106.042 31.5381 106.237C31.5926 106.432 31.647 106.626 31.6833 106.804C32.4095 109.709 32.4821 113.324 31.6833 117.434C31.4655 118.497 31.175 119.561 30.8846 120.553C30.5941 121.545 30.3036 122.608 30.0858 123.671C29.868 124.734 29.6501 125.868 29.7227 126.86C29.4323 129.908 30.5215 130.829 30.5215 130.829H29.6501C29.287 130.829 28.9966 130.758 28.7061 130.617C28.1252 130.404 27.6169 129.908 27.3265 129.412C27.1812 129.128 27.036 128.845 26.9634 128.632C26.8908 128.42 26.8182 128.207 26.8182 127.994C26.7456 127.64 26.7456 127.215 26.7456 126.86C26.811 125.583 27.1123 124.421 27.3838 123.373C27.4136 123.259 27.443 123.145 27.4717 123.033C27.508 122.927 27.5443 122.803 27.5806 122.679C27.6169 122.555 27.6532 122.431 27.6895 122.325C27.2539 122.892 26.8908 123.459 26.6729 124.025C26.6366 124.096 26.6003 124.185 26.564 124.274C26.5277 124.362 26.4914 124.451 26.4551 124.522C26.4551 124.557 26.4369 124.592 26.4188 124.628C26.4006 124.663 26.3825 124.699 26.3825 124.734C26.3462 124.805 26.328 124.876 26.3099 124.947C26.2917 125.018 26.2736 125.089 26.2373 125.159C26.092 125.726 26.0194 126.364 26.0194 126.931V128.774C26.0194 129.412 26.0194 130.12 25.9468 130.829C25.9105 131.184 25.856 131.538 25.8016 131.892C25.7471 132.247 25.6926 132.601 25.6563 132.955C25.6563 133.019 25.6417 133.083 25.6255 133.153C25.6057 133.239 25.5837 133.334 25.5837 133.451C25.5474 133.558 25.5293 133.646 25.5111 133.735C25.493 133.824 25.4748 133.912 25.4385 134.018C25.3212 134.305 25.2513 134.591 25.1905 134.839C25.176 134.899 25.162 134.956 25.148 135.011C24.8576 136.215 24.6397 137.349 24.5671 138.413C24.4945 139.263 24.5671 140.043 24.7124 140.751C24.6397 139.83 24.785 138.838 25.0754 137.916C25.5111 136.428 26.2373 135.152 27.036 134.16C27.8348 133.168 28.7061 132.388 29.4323 131.751C30.9572 130.546 32.0464 130.05 32.0464 130.05C32.0464 130.05 31.6833 131.113 31.3202 132.743C31.2698 133.038 31.2106 133.35 31.1488 133.677C31.0325 134.291 30.9067 134.955 30.8119 135.648C30.7393 136.712 30.6667 137.916 30.8846 138.979C30.9572 139.476 31.175 139.972 31.3929 140.397C31.4292 140.432 31.4655 140.485 31.5018 140.539C31.5381 140.592 31.5744 140.645 31.6107 140.68C31.6833 140.751 31.7559 140.822 31.9012 141.035C32.119 141.318 32.2642 141.673 32.4095 142.027C32.8451 143.374 32.6999 144.578 32.1916 145.5C31.9738 145.925 31.6107 146.279 31.2476 146.492L30.8119 146.705C30.8845 146.74 30.9753 146.775 31.066 146.811C31.1568 146.846 31.2476 146.882 31.3202 146.917C31.8285 147.059 32.119 146.988 32.119 146.988C32.119 146.988 31.9012 147.201 31.3202 147.271C30.8119 147.342 30.0132 147.059 29.1418 146.634C28.7061 146.421 28.1978 146.208 27.7622 146.067C27.3265 145.996 26.8182 145.996 26.3099 146.208C25.8742 146.421 25.4385 146.705 25.0028 147.059H24.9302C24.8939 147.094 24.8576 147.112 24.8213 147.13C24.785 147.147 24.7487 147.165 24.7124 147.201L24.2767 147.555L24.2041 147.626C24.2404 147.626 24.2404 147.608 24.2404 147.599C24.2404 147.59 24.2404 147.59 24.2767 147.626L24.7124 147.98C25.2933 148.476 25.729 148.831 26.2373 148.972C26.2871 148.985 26.3348 148.997 26.3812 149.009C26.6046 149.066 26.7954 149.114 27.036 149.114H27.3265C27.4717 149.114 27.5443 149.114 27.6895 149.043C28.0021 148.956 28.3146 148.842 28.6103 148.734C28.7955 148.667 28.974 148.602 29.1418 148.547C29.2144 148.547 29.4323 148.476 29.6501 148.405C29.6864 148.405 29.7227 148.388 29.759 148.37C29.7953 148.352 29.8317 148.335 29.868 148.335C30.4489 148.193 30.8846 148.122 31.2476 148.122C31.7559 148.122 32.0464 148.264 32.0464 148.264C32.0464 148.264 31.7559 148.193 31.2476 148.405C31.2113 148.441 31.1569 148.459 31.1024 148.476C31.0479 148.494 30.9935 148.512 30.9572 148.547C31.0298 148.547 31.1024 148.547 31.175 148.618C31.5381 148.831 31.9012 149.185 32.119 149.61C32.5547 150.532 32.7725 151.736 32.3368 153.083C32.2909 153.173 32.2449 153.27 32.1966 153.371C32.0924 153.591 31.9774 153.833 31.8285 154.075C31.6833 154.288 31.6107 154.359 31.5381 154.43C31.5018 154.465 31.4655 154.518 31.4292 154.571C31.3929 154.624 31.3566 154.678 31.3202 154.713C31.1024 155.138 30.9572 155.564 30.8119 156.13C30.5941 157.194 30.5941 158.328 30.7393 159.391C30.8846 160.454 31.0298 161.446 31.2476 162.296C31.6833 163.926 31.9738 164.989 31.9738 164.989C31.9738 164.989 30.8846 164.493 29.3597 163.289C28.5609 162.722 27.7621 161.871 26.9634 160.879C26.1646 159.816 25.4385 158.611 25.0028 157.123C24.785 156.201 24.6397 155.209 24.6397 154.288C24.4945 154.997 24.4219 155.776 24.4945 156.627C24.4945 157.619 24.7124 158.753 25.0754 160.028C25.2207 160.312 25.2933 160.666 25.3659 161.021C25.4385 161.162 25.5111 161.375 25.5111 161.588C25.5111 161.658 25.5293 161.747 25.5474 161.836C25.5656 161.924 25.5837 162.013 25.5837 162.084C25.729 162.792 25.8016 163.501 25.8742 164.21C25.9468 164.919 25.9468 165.627 25.9468 166.265V168.108C25.9468 168.675 26.0194 169.313 26.1646 169.88C26.2009 169.951 26.2191 170.021 26.2373 170.092C26.2554 170.163 26.2736 170.234 26.3099 170.305C26.3099 170.34 26.328 170.376 26.3462 170.411C26.3643 170.447 26.3825 170.482 26.3825 170.517C26.4188 170.588 26.4551 170.677 26.4914 170.766C26.5277 170.854 26.564 170.943 26.6003 171.014C26.8182 171.581 27.2539 172.289 27.6895 172.856C27.6086 172.659 27.5502 172.439 27.4892 172.21C27.4408 172.028 27.3907 171.84 27.3265 171.651C27.036 170.517 26.7456 169.313 26.6729 167.895C26.6729 167.541 26.6729 167.186 26.7456 166.761C26.7456 166.549 26.8182 166.336 26.8908 166.123C26.9634 165.911 27.1086 165.556 27.2539 165.344C27.5443 164.848 28.0526 164.422 28.6335 164.21C28.924 164.068 29.287 163.997 29.5775 163.997C29.7821 163.997 29.9406 164.042 30.0789 164.082C30.1861 164.112 30.2812 164.139 30.3763 164.139C30.3763 164.139 29.5775 165.202 29.6501 168.037C29.6501 169.029 29.7953 170.163 30.0132 171.226C30.1986 172.191 30.4366 173.054 30.6824 173.944C30.7254 174.1 30.7687 174.257 30.8119 174.415C31.1024 175.408 31.3929 176.542 31.6107 177.534C32.3368 181.644 32.2642 185.33 31.5381 188.165C31.4963 188.369 31.4304 188.549 31.3682 188.72C31.3223 188.845 31.2784 188.966 31.2476 189.086C31.5381 190.999 31.5381 192.7 31.5381 194.26C31.4655 196.882 31.175 198.937 30.8846 200.284C30.6667 201.701 30.4489 202.41 30.4489 202.41C30.4489 202.41 30.5941 201.701 30.7393 200.284C30.8846 198.866 31.0298 196.882 30.9572 194.26C30.8987 193.346 30.793 192.386 30.6781 191.343C30.6505 191.092 30.6223 190.836 30.5941 190.574L30.5941 190.574C30.3762 190.999 30.1584 191.425 29.9406 191.779C29.287 192.7 28.6335 193.409 27.98 193.834C27.3265 194.33 26.8182 194.543 26.4551 194.685C26.092 194.827 25.8742 194.897 25.8742 194.897C25.8742 194.897 26.7456 194.614 27.8348 193.622C28.4157 193.126 28.9966 192.417 29.4323 191.425C29.7953 190.645 30.0858 189.795 30.3036 188.732C30.0858 187.598 29.7953 186.393 29.4323 185.188C28.924 183.487 28.2705 181.715 27.3991 179.873C26.9634 179.022 26.4552 178.101 25.9469 177.18L25.9468 177.179C25.8016 176.967 25.6563 176.736 25.5111 176.506C25.3659 176.276 25.2207 176.045 25.0754 175.833C24.9302 175.62 24.8576 175.549 24.785 175.479C24.7457 175.479 24.7276 175.541 24.7078 175.609C24.6911 175.667 24.673 175.729 24.6397 175.762L24.4945 176.258C24.4582 176.364 24.4219 176.488 24.3856 176.612C24.3493 176.736 24.313 176.861 24.2767 176.967C24.0588 177.888 23.841 178.951 23.7684 180.014C23.5505 182.14 23.6231 184.337 23.841 186.605C24.3493 191.141 25.4385 195.89 26.9634 200.638C27.5443 202.552 28.1978 204.394 28.8514 206.166C29.5049 207.938 30.1584 209.781 30.7393 211.623C31.8285 215.238 32.6273 218.852 32.9178 222.325C33.063 224.097 33.063 225.798 32.8451 227.498C32.6273 229.199 32.1916 230.9 31.175 232.247C30.1584 233.593 28.7061 234.657 27.036 234.869C25.3659 235.082 23.841 234.444 22.7518 233.523C22.2435 233.097 21.7352 232.53 21.3721 232.034C21.3491 232.001 21.3243 231.965 21.2983 231.928C21.1597 231.73 20.986 231.482 20.8638 231.184C20.7186 230.829 20.646 230.546 20.646 230.192C20.5734 228.916 20.8638 227.711 21.5173 226.79C21.8078 226.294 22.2435 225.868 22.7518 225.656C23.2601 225.443 23.7684 225.372 24.2767 225.443C24.785 225.514 25.2207 225.727 25.5837 225.939C25.9468 226.223 26.2373 226.577 26.3825 226.932C26.6729 227.64 26.6003 228.42 26.3099 228.916C26.0194 229.483 25.5837 229.766 25.2207 229.908C24.9418 230.017 24.7058 230 24.5127 229.987C24.4543 229.983 24.3998 229.979 24.3493 229.979C24.5671 229.979 24.8576 229.979 25.2207 229.837C25.5837 229.696 25.9468 229.341 26.1646 228.845C26.3825 228.349 26.3825 227.711 26.092 227.073C25.9468 226.79 25.6563 226.506 25.3659 226.294C25.0028 226.081 24.6397 225.939 24.2041 225.868C23.3327 225.727 22.5339 226.223 22.0256 227.073C21.5173 227.924 21.2995 228.987 21.4447 230.05L21.4447 230.05C21.5174 230.333 21.59 230.617 21.6626 230.829C21.7352 231.042 21.8804 231.255 22.0983 231.467C22.4613 231.963 22.897 232.389 23.4053 232.743C24.3493 233.452 25.6563 233.877 26.8908 233.664C28.1252 233.452 29.287 232.53 30.0132 231.396C30.8119 230.192 31.175 228.774 31.3202 227.215C31.4655 225.656 31.3929 224.026 31.2476 222.325C30.8846 218.994 30.0858 215.521 28.924 211.978C28.3431 210.206 27.6895 208.505 26.9634 206.662C26.2373 204.819 25.5837 202.977 25.0028 201.063C23.4779 196.244 22.3887 191.425 21.953 186.676C21.8078 184.337 21.7352 181.999 22.0256 179.731C22.1709 178.597 22.3887 177.463 22.6792 176.4C22.8244 176.116 22.897 175.904 22.9696 175.62L23.1148 175.195C23.1148 175.109 23.1681 174.997 23.2262 174.875C23.2641 174.796 23.304 174.712 23.3327 174.628C23.6958 173.778 24.2041 173.14 24.6397 172.644L25.5111 173.778C25.8016 174.132 26.092 174.557 26.3099 174.912C26.4848 175.168 26.6334 175.449 26.7874 175.742C26.8891 175.934 26.9931 176.132 27.1086 176.329C27.459 177.013 27.7748 177.697 28.08 178.357C28.2175 178.655 28.3529 178.948 28.4883 179.235C29.287 181.077 29.868 182.991 30.3036 184.763C30.34 184.869 30.3581 184.958 30.3763 185.046C30.3944 185.135 30.4126 185.223 30.4489 185.33C30.4489 183.062 30.0858 180.51 29.287 177.817C29.1088 177.208 28.9031 176.653 28.6869 176.068C28.5509 175.701 28.4107 175.322 28.2705 174.912L27.6169 172.998C27.5806 172.963 27.5443 172.945 27.508 172.927C27.4717 172.909 27.4354 172.892 27.3991 172.856C26.092 172.289 24.7124 171.51 23.6231 170.801C23.4416 170.695 23.2601 170.571 23.0785 170.447C22.897 170.323 22.7155 170.199 22.5339 170.092C22.3887 169.986 22.2616 169.897 22.1346 169.809C22.0075 169.72 21.8804 169.632 21.7352 169.525C20.646 168.746 19.702 167.895 18.8306 166.974C17.0879 165.131 15.6356 162.863 15.1273 160.595C14.9095 159.461 14.8368 158.398 14.9821 157.406C15.0547 156.91 15.1999 156.485 15.3451 156.06C15.4904 155.634 15.7082 155.209 15.9261 154.926C16.7974 153.792 17.814 153.154 18.758 152.587C18.1771 152.87 17.5236 153.154 16.87 153.437C16.507 153.579 16.1439 153.721 15.7082 153.863L15.7081 153.863C15.4903 153.933 15.2725 154.004 14.9821 154.004H14.3285C13.4572 154.004 12.5858 153.933 11.6418 153.721C10.6978 153.508 9.82647 153.083 8.9551 152.658C8.08373 152.162 7.35759 151.666 6.55883 151.099C6.15943 150.851 5.77818 150.585 5.39693 150.319C5.01573 150.053 4.63453 149.787 4.23518 149.539L3.65427 149.185L3.36381 148.972L2.71028 148.618C2.27463 148.37 1.82082 148.14 1.36702 147.909C0.913147 147.679 0.459275 147.449 0.0235596 147.201L0.314016 147.059C0.550084 146.935 0.790693 146.811 1.0313 146.687C1.75283 146.315 2.47435 145.943 3.07335 145.571L3.87211 145.074L4.45302 144.72L6.77667 143.161C8.37418 142.169 10.1169 141.177 11.9323 140.751C12.8763 140.539 13.8202 140.397 14.6916 140.468C15.1272 140.468 15.5628 140.539 15.9984 140.609L15.9987 140.61C16.4343 140.68 16.87 140.822 17.2331 140.964L17.6688 141.177C17.0879 140.751 16.507 140.255 15.9987 139.546C15.7808 139.192 15.563 138.838 15.4178 138.413C15.1999 137.987 15.1273 137.562 15.0547 137.066C14.9095 136.145 14.9095 135.011 15.1999 133.877C15.7808 131.609 17.1605 129.341 18.9032 127.498C19.8472 126.577 20.7912 125.726 21.8078 124.947C21.953 124.841 22.0801 124.752 22.2072 124.663C22.3342 124.575 22.4613 124.486 22.6066 124.38C22.7881 124.274 22.9696 124.15 23.1512 124.026C23.3327 123.901 23.5142 123.777 23.6958 123.671C24.785 122.962 26.092 122.183 27.4717 121.616C27.4717 121.616 27.5443 121.545 27.6169 121.545C27.8348 120.695 28.1252 119.915 28.4157 119.206C28.8513 118.143 29.1418 117.222 29.4322 116.301L29.4323 116.3C30.231 113.536 30.5215 110.985 30.5215 108.717C30.4852 108.823 30.467 108.912 30.4489 109.001C30.4307 109.089 30.4126 109.178 30.3763 109.284C29.9406 111.056 29.3597 112.899 28.5609 114.812C28.1252 115.804 27.6895 116.726 27.1812 117.718C26.9634 118.143 26.6729 118.639 26.3825 119.135C26.1646 119.49 25.8742 119.915 25.5837 120.269L24.7124 121.403C24.2767 120.907 23.7684 120.269 23.4053 119.419C23.369 119.348 23.3327 119.242 23.2964 119.135C23.2601 119.029 23.2238 118.923 23.1875 118.852L23.0422 118.427C22.897 118.214 22.8244 117.931 22.7518 117.647C22.4613 116.584 22.2435 115.45 22.0983 114.316C21.8078 112.048 21.8078 109.709 22.0256 107.371C22.3887 102.693 23.5505 97.8029 25.0754 92.9836C25.6563 91.0701 26.3099 89.2274 27.036 87.3848C27.7622 85.5421 28.4157 83.8412 28.9966 82.0694C30.0858 78.5258 30.9572 75.053 31.3202 71.7221C31.4655 70.0211 31.5381 68.3911 31.3929 66.8319C31.2476 65.2727 30.8846 63.8553 30.0858 62.6505C29.3597 61.4456 28.1978 60.5952 26.9634 60.3826C25.729 60.17 24.4219 60.5952 23.4779 61.3039C22.9696 61.6582 22.5339 62.0835 22.1709 62.5796C22.1225 62.6505 22.066 62.7213 22.0095 62.7922C21.8965 62.934 21.7836 63.0757 21.7352 63.2174C21.6989 63.3592 21.6626 63.4832 21.6263 63.6072C21.59 63.7313 21.5536 63.8553 21.5173 63.997C21.3721 65.0601 21.59 66.1232 22.0983 66.9736C22.6065 67.8241 23.4779 68.3202 24.2767 68.1785C24.7124 68.1076 25.0754 67.9659 25.4385 67.7532C25.8016 67.5406 26.0194 67.2571 26.1646 66.9736C26.5277 66.3358 26.4551 65.698 26.2373 65.2018C26.0194 64.6349 25.6563 64.3514 25.2933 64.2096C24.9302 64.0679 24.6397 64.0679 24.4219 64.0679C24.4514 64.0679 24.49 64.065 24.5357 64.0615C24.7148 64.0479 25.0041 64.0259 25.2933 64.1388C25.6563 64.2805 26.092 64.6349 26.3825 65.131C26.6729 65.6271 26.7456 66.4067 26.4551 67.1154C26.3099 67.5406 26.0194 67.8241 25.6563 68.1076C25.5932 68.1384 25.5316 68.1692 25.4709 68.1996C25.1124 68.3788 24.7839 68.5431 24.3493 68.6037C23.9136 68.6746 23.3327 68.6037 22.8244 68.3911C22.3161 68.1076 21.8804 67.7532 21.59 67.2571C20.9364 66.3358 20.5734 65.131 20.7186 63.8553C20.7186 63.5009 20.7912 63.2174 20.9364 62.8631C21.009 62.7213 21.0998 62.5796 21.1906 62.4378C21.2813 62.2961 21.3721 62.1544 21.4447 62.0126C21.8078 61.5165 22.2435 60.9495 22.8244 60.5243C23.9136 59.603 25.4385 58.9651 27.1086 59.1777C28.7787 59.3904 30.3036 60.4534 31.2476 61.8C32.1916 63.1466 32.6999 64.8475 32.9178 66.5484C32.9238 66.6079 32.9299 66.6668 32.936 66.7254C33.002 67.3647 33.063 67.9545 33.063 68.6037V66.4067L33.3534 28.8446L33.5713 10.0635ZM24.1314 64.1388C24.1314 64.1388 24.2041 64.1388 24.4219 64.0679C24.2041 64.0679 24.1314 64.1388 24.1314 64.1388ZM24.0588 229.908C24.0588 229.908 24.1314 229.908 24.3493 229.979C24.1314 229.979 24.0588 229.908 24.0588 229.908ZM33.9246 291.708C33.9278 291.897 33.9311 292.086 33.9344 292.275C33.9376 292.086 33.9409 291.897 33.9441 291.708H33.9246ZM30.9572 149.681C30.8846 149.114 30.5941 148.76 30.3036 148.476C30.2157 148.541 30.1211 148.605 30.0179 148.675C29.78 148.837 29.4962 149.03 29.1418 149.327C28.9051 149.442 28.6684 149.6 28.42 149.765C28.2113 149.904 27.9943 150.048 27.7622 150.177L27.3265 150.39H27.2539C26.8908 151.099 26.6729 151.949 26.6003 152.941C26.5277 154.004 26.7456 155.209 27.1086 156.414C27.8348 158.824 29.1418 160.95 30.1584 162.438C29.7227 161.729 29.287 160.808 28.924 159.674C28.5609 158.469 28.3431 157.052 28.6335 155.563C28.7787 154.784 29.0692 154.075 29.5049 153.437C29.5775 153.366 29.632 153.296 29.6864 153.225C29.7409 153.154 29.7953 153.083 29.868 153.012C29.9406 152.87 30.1584 152.658 30.1584 152.658C30.3036 152.516 30.4489 152.374 30.5215 152.162C30.9572 151.311 31.1024 150.39 30.9572 149.681ZM30.1584 131.963C29.1418 133.451 27.8348 135.578 27.1086 137.987C26.7456 139.192 26.6003 140.397 26.6003 141.531C26.6729 142.523 26.8908 143.374 27.2539 144.082C27.3628 144.118 27.4536 144.153 27.5444 144.189C27.6351 144.224 27.7259 144.259 27.8348 144.295C28.3431 144.578 28.7787 144.933 29.2144 145.287C29.5775 145.571 29.868 145.783 30.1584 145.996C30.5215 145.783 30.8846 145.358 30.9572 144.72C31.1024 144.011 30.9572 143.019 30.5215 142.24C30.4489 142.027 30.3036 141.885 30.1584 141.743C30.1584 141.673 30.0133 141.531 29.8681 141.389L29.868 141.389C29.7953 141.318 29.7409 141.247 29.6864 141.177C29.632 141.106 29.5775 141.035 29.5049 140.964C29.0692 140.326 28.7787 139.617 28.6335 138.838C28.3431 137.279 28.5609 135.861 28.924 134.727C29.287 133.664 29.7227 132.743 30.1584 131.963ZM23.7684 125.089C23.841 124.947 23.841 124.876 23.841 124.805L23.9117 124.736C23.8385 124.808 23.6945 124.947 23.5505 125.018C23.2601 125.159 22.9696 125.372 22.7518 125.585C21.8078 126.364 20.8638 127.215 20.0651 128.065C18.5402 129.766 17.3783 131.68 16.87 133.451C16.6522 134.373 16.507 135.223 16.5796 136.003C16.5796 136.428 16.6522 136.782 16.7248 137.137C16.7974 137.491 16.9426 137.775 17.0879 138.058C17.6688 139.192 18.6128 140.043 19.4841 140.751C20.1272 141.274 20.7702 141.72 21.384 142.146C21.602 142.297 21.8163 142.445 22.0256 142.594C22.8244 143.09 23.5505 143.657 24.0588 144.082L24.3493 144.366C24.1315 144.437 23.9137 144.578 23.6959 144.72L23.6958 144.72C23.6231 144.791 23.5324 144.844 23.4416 144.897C23.3508 144.95 23.2601 145.004 23.1875 145.074C22.3891 144.72 21.5181 144.295 20.6472 143.87L20.646 143.87C19.4841 143.232 18.2497 142.594 16.87 142.169C16.6886 142.133 16.5253 142.098 16.362 142.062C16.1985 142.027 16.0351 141.992 15.8534 141.956C15.4904 141.885 15.1273 141.885 14.7642 141.885C14.0381 141.885 13.2393 142.027 12.5132 142.24C11.0609 142.736 9.60862 143.586 8.08373 144.649L5.76007 146.279L5.17916 146.705L4.88871 146.917L4.74348 146.988L5.03393 147.201L5.68746 147.626C6.48622 148.193 7.28497 148.76 8.01111 149.327C9.46339 150.461 10.8431 151.382 12.2953 151.807C13.0215 152.02 13.8202 152.162 14.5464 152.162H15.1273C15.1574 152.162 15.2124 152.149 15.2768 152.135C15.3679 152.115 15.4779 152.091 15.563 152.091C15.6189 152.077 15.6775 152.063 15.7382 152.049C15.9932 151.99 16.2864 151.922 16.5796 151.807C17.6917 151.465 18.7566 151.03 19.7743 150.614C20.0192 150.514 20.2613 150.415 20.5007 150.319C21.3333 150.048 22.0809 149.736 22.7762 149.446C22.9906 149.356 23.1999 149.269 23.4053 149.185C23.5411 149.318 23.7052 149.423 23.8798 149.534C23.9853 149.602 24.0947 149.672 24.2041 149.752L23.9862 149.965C23.8022 150.099 23.611 150.241 23.4101 150.39C22.9768 150.711 22.4988 151.066 21.953 151.453C21.7437 151.602 21.5293 151.75 21.3113 151.901C20.6975 152.327 20.0545 152.773 19.4115 153.296C18.5402 154.004 17.5962 154.855 17.0153 155.989C16.87 156.272 16.7248 156.556 16.6522 156.91C16.5796 157.264 16.507 157.69 16.507 158.044C16.4344 158.824 16.5796 159.674 16.7974 160.595C17.2331 162.438 18.3949 164.281 19.9924 165.982C20.7912 166.903 21.7352 167.683 22.6792 168.462C22.8244 168.568 22.9515 168.657 23.0786 168.746C23.2056 168.834 23.3327 168.923 23.4779 169.029L23.478 169.029C23.5506 169.1 23.6958 169.242 23.841 169.313L23.9862 169.454C23.9136 169.313 23.9136 169.242 23.9136 169.171C23.841 169.029 23.841 168.817 23.841 168.675C23.841 168.037 23.9136 167.399 23.9862 166.832C24.0425 166.521 24.1036 166.224 24.1633 165.934C24.3347 165.101 24.4945 164.324 24.4945 163.43C24.4945 163.111 24.4764 162.81 24.4582 162.509C24.4401 162.208 24.4219 161.907 24.4219 161.588V161.162C24.4219 161.133 24.4094 161.092 24.3948 161.043C24.3742 160.974 24.3493 160.891 24.3493 160.808C24.313 160.666 24.2767 160.507 24.2404 160.347C24.2041 160.188 24.1678 160.028 24.1314 159.887C23.9136 158.682 23.7684 157.406 23.7684 156.343C23.841 154.5 24.4219 152.941 25.0754 151.949C25.2207 151.311 25.5111 150.744 25.8742 150.248C25.148 150.106 24.4945 149.681 23.9136 149.256L23.4779 148.902L23.0422 148.618C22.9696 148.583 22.897 148.529 22.8244 148.476C22.7518 148.423 22.6792 148.37 22.6066 148.335C22.5481 148.303 22.4886 148.271 22.428 148.238C21.8114 147.904 21.0959 147.517 20.5007 147.13C20.8275 146.917 21.1906 146.705 21.5536 146.492C21.9167 146.279 22.2798 146.067 22.6066 145.854L23.9136 144.933C24.4945 144.507 25.148 144.153 25.8016 144.011C25.4385 143.515 25.148 142.948 24.9302 142.31C24.2041 141.318 23.6231 139.83 23.6231 137.916C23.5505 136.853 23.6958 135.578 23.9862 134.373C24.0588 134.018 24.1314 133.735 24.2041 133.451C24.2767 133.31 24.2767 133.168 24.2767 133.097V132.672C24.3493 132.034 24.3493 131.396 24.3493 130.829C24.3493 129.883 24.1701 129.024 23.9876 128.149C23.9378 127.911 23.8877 127.671 23.841 127.427C23.6958 126.86 23.6231 126.223 23.6958 125.585C23.6958 125.514 23.7139 125.425 23.7321 125.337C23.7502 125.248 23.7684 125.159 23.7684 125.089Z" fill="url(#paint0_linear_158_72222)"/>
<defs>
<linearGradient id="paint0_linear_158_72222" x1="0.0235596" y1="146.492" x2="34.9509" y2="146.492" gradientUnits="userSpaceOnUse">
<stop offset="0.223958" stop-color="#DAA618"/>
<stop offset="0.505208" stop-color="#F6F494"/>
<stop offset="0.671875" stop-color="#EBC43C"/>
<stop offset="0.885417" stop-color="#D3A116"/>
</linearGradient>
</defs>
</svg>
