<svg width="22" height="20" viewBox="0 0 22 20" fill="none" xmlns="http://www.w3.org/2000/svg">
<path d="M21.2628 9.29927C21.2416 9.03425 21.2204 8.74884 21.1781 8.48382C20.5218 4.16195 16.9864 0.737075 12.4984 0.12549C12.202 0.0847176 11.9268 0.0643315 11.6304 0.0439453V0.859392V2.14372V2.95917V5.24242H10.3602V2.95917V2.14372V0.859392V0.0439453C10.085 0.0643315 9.78861 0.0847176 9.5134 0.12549C5.02535 0.757461 1.46878 4.16195 0.833679 8.48382C0.791339 8.74884 0.770169 9.03425 0.748999 9.29927C0.727829 9.50313 0.727829 9.70699 0.727829 9.91085C0.727829 10.1147 0.727829 10.3186 0.748999 10.5224C0.770169 10.7875 0.791339 11.0729 0.833679 11.3379C1.48995 15.6597 5.02535 19.0846 9.5134 19.6962C9.78861 19.737 10.085 19.7574 10.3602 19.7778V18.9623V17.6984V16.8829V14.5997H11.6304V16.8829V17.6984V18.9827V19.7981C11.9056 19.7778 12.202 19.7574 12.4772 19.7166C16.9653 19.0846 20.5218 15.6801 21.1569 11.3583C21.1993 11.0932 21.2204 10.8078 21.2416 10.5428C21.2628 10.339 21.2628 10.1351 21.2628 9.93124C21.284 9.70699 21.2628 9.50313 21.2628 9.29927ZM9.5134 16.7606V17.5964V18.8808C5.49109 18.2692 2.31558 15.2113 1.68048 11.3379C1.63814 11.0729 1.5958 10.8078 1.5958 10.5224C1.57463 10.3186 1.57463 10.1147 1.57463 9.91085C1.57463 9.70699 1.57463 9.50313 1.5958 9.29927C1.61697 9.03425 1.63814 8.74884 1.68048 8.48382C2.31558 4.61045 5.49109 1.55252 9.5134 0.940937V2.22527V3.0611V8.48382H3.88217C4.36908 6.3025 5.89332 4.50852 7.92565 3.59114V6.77138H6.80364V6.3025H5.95683V7.58683H8.77245V3.26496V2.40874C8.49724 2.49029 8.20086 2.57183 7.92565 2.69415C5.40641 3.67268 3.54345 5.854 3.03537 8.48382C2.99303 8.74884 2.95069 9.01386 2.92951 9.29927H3.77632H6.14736V10.5224H3.77632H2.92951C2.95069 10.8078 2.99303 11.0729 3.03537 11.3379C3.54345 13.9881 5.40641 16.149 7.92565 17.1479C8.20086 17.2499 8.47607 17.3518 8.77245 17.4333V16.5771V12.2553H5.95683V13.5396H6.80364V13.0707H7.92565V16.2509C5.89332 15.3336 4.36908 13.5192 3.88217 11.3379H9.5134V16.7606ZM11.6304 10.5224V11.3379V13.7842H10.3602V11.3379V10.5224H9.5134H6.973V9.29927H9.5134H10.3602V8.48382V6.03748H11.6304V8.48382V9.29927H12.4772H15.0176V10.5224H12.4772H11.6304ZM20.416 10.5224C20.3948 10.8078 20.3736 11.0729 20.3313 11.3379C19.6962 15.2113 16.5207 18.2692 12.4984 18.8808V17.5964V16.7606V11.3379H18.1296C17.6427 13.5192 16.1185 15.3336 14.065 16.2509V13.0707H15.187V13.5396H16.0338V12.2553H13.2182V16.5771V17.4333C13.5145 17.3518 13.7898 17.2703 14.065 17.1479C16.5842 16.149 18.4683 13.9881 18.9764 11.3379C19.0188 11.0729 19.0611 10.8078 19.0823 10.5224H18.2355H15.8644V9.29927H18.2355H19.0823C19.0611 9.01386 19.0188 8.74884 18.9764 8.48382C18.4683 5.854 16.5842 3.67268 14.065 2.69415C13.7898 2.57183 13.5145 2.49029 13.2182 2.40874V3.26496V7.58683H16.0338V6.3025H15.187V6.77138H14.065V3.59114C16.1185 4.50852 17.6427 6.32289 18.1084 8.50421H12.4772V3.0611V2.24565V0.961323C16.4995 1.57291 19.675 4.63083 20.3101 8.50421C20.3525 8.76923 20.3948 9.05463 20.3948 9.31965C20.416 9.52351 20.416 9.72738 20.416 9.93124C20.4372 10.1147 20.416 10.3186 20.416 10.5224Z" fill="#FFDC73"/>
</svg>
