<svg width="24" height="20" viewBox="0 0 24 20" fill="none" xmlns="http://www.w3.org/2000/svg">
<path d="M17.0001 19.3544V17.3544C17.0001 16.2935 16.5786 15.2761 15.8285 14.5259C15.0783 13.7758 14.0609 13.3544 13.0001 13.3544H5.00006C3.9392 13.3544 2.92178 13.7758 2.17163 14.5259C1.42149 15.2761 1.00006 16.2935 1.00006 17.3544V19.3544" stroke="#FFDC73" stroke-linecap="round" stroke-linejoin="round"/>
<path d="M9.00006 9.35437C11.2092 9.35437 13.0001 7.56351 13.0001 5.35437C13.0001 3.14523 11.2092 1.35437 9.00006 1.35437C6.79092 1.35437 5.00006 3.14523 5.00006 5.35437C5.00006 7.56351 6.79092 9.35437 9.00006 9.35437Z" stroke="#FFDC73" stroke-linecap="round" stroke-linejoin="round"/>
<path d="M23.0001 19.3544V17.3544C22.9994 16.4681 22.7044 15.6071 22.1614 14.9067C21.6184 14.2062 20.8582 13.7059 20.0001 13.4844" stroke="#FFDC73" stroke-linecap="round" stroke-linejoin="round"/>
<path d="M16.0001 1.48438C16.8605 1.70468 17.6231 2.20508 18.1677 2.90669C18.7123 3.60829 19.0079 4.4712 19.0079 5.35938C19.0079 6.24755 18.7123 7.11045 18.1677 7.81206C17.6231 8.51367 16.8605 9.01407 16.0001 9.23438" stroke="#FFDC73" stroke-linecap="round" stroke-linejoin="round"/>
</svg>
