<svg width="523" height="63" viewBox="0 0 523 63" fill="none" xmlns="http://www.w3.org/2000/svg">
<path d="M265.449 28.8474C265.194 27.0465 264.557 25.3743 263.793 23.7021L262.137 20.3577C261.373 18.6855 260.608 16.6275 259.844 14.8266V14.698C259.08 16.4988 258.316 18.4283 257.679 20.1005C257.551 20.4864 257.297 20.8723 257.169 21.2582L256.66 22.2872L256.023 23.4449C255.259 24.9885 254.367 26.7893 254.24 28.5901C254.112 29.4905 254.112 30.3909 254.112 31.1627C254.112 31.5486 254.24 32.1918 254.367 32.5777C254.494 32.9636 254.622 33.3494 254.749 33.7353C255.259 35.1503 255.896 36.308 256.278 37.337C256.787 38.366 257.169 39.1378 257.424 40.0382C257.551 39.781 257.679 39.5237 257.806 39.2665C257.934 39.0092 258.061 38.6233 258.316 38.2374C258.188 37.7229 258.061 37.2084 257.934 36.6938C257.679 35.5362 257.297 34.2499 257.042 32.9636C256.915 32.7063 256.915 32.3204 256.915 32.0631C256.915 31.6772 256.915 31.6772 256.915 31.2914C256.915 30.6482 257.042 30.0051 257.169 29.3619C257.424 28.0756 258.061 26.9179 258.953 25.3743L259.589 24.2167C259.717 24.088 259.589 24.088 259.589 24.088L259.717 24.2167L260.354 25.3743C261.118 26.7893 261.755 28.0756 262.137 29.3619C262.519 30.6482 262.519 31.9345 262.392 33.0922C262.137 34.2499 261.755 35.5362 261.373 36.6938C261.245 37.2084 261.118 37.5943 260.991 37.9802C261.245 38.6233 261.5 39.1378 261.882 39.6524C262.264 39.0092 262.646 38.2374 263.156 37.337C263.793 36.308 264.43 35.1503 264.939 33.7353C265.576 32.3204 265.703 30.6482 265.449 28.8474Z" fill="url(#paint0_linear_155_64894)"/>
<path d="M286.211 35.0217C284.937 34.3786 283.663 33.864 282.262 33.4781C280.351 32.835 278.313 32.5777 276.403 32.7064C274.492 32.9636 272.964 33.6068 271.817 34.5072C270.798 35.4076 270.161 36.4366 269.652 37.3371C268.633 39.1379 267.869 40.5528 267.104 41.4532C266.34 42.3537 265.831 42.7396 265.831 42.7396C265.831 42.7396 266.468 42.4823 267.487 41.7105C268.506 40.9387 269.779 39.5238 271.18 38.1088C271.945 37.3371 272.709 36.5653 273.728 36.0508C274.62 35.5362 275.893 35.279 277.294 35.1503C278.696 35.1503 280.224 35.4076 281.88 35.9221C282.262 36.0508 282.772 36.1794 283.154 36.4366H283.281C283.281 36.4366 283.281 36.4366 283.154 36.4366C282.899 36.5653 282.644 36.8225 282.262 36.9512C281.243 37.723 280.351 38.2375 279.332 38.752C278.823 39.0093 278.313 39.1379 277.677 39.3952C277.422 39.5238 277.294 39.5238 277.04 39.6524C276.785 39.6524 276.53 39.781 276.148 39.781C275.002 39.9097 273.855 40.1669 272.709 40.4242C270.671 40.9387 269.015 41.8391 268.124 42.6109C267.232 43.3827 266.977 44.0259 266.977 44.0259C266.977 44.0259 267.359 43.5113 268.378 42.9968C269.397 42.4823 270.926 41.9678 272.964 41.8391C273.983 41.7105 275.129 41.7105 276.403 41.7105C276.785 41.7105 277.04 41.7105 277.422 41.7105C277.804 41.7105 278.313 41.5819 278.568 41.5819C279.205 41.4532 279.969 41.3246 280.734 41.0674C282.262 40.6815 283.536 40.0383 284.682 39.5238C285.574 39.1379 285.319 39.2665 285.574 39.1379C285.829 39.0093 286.083 38.8806 286.465 38.8806C286.848 38.752 287.102 38.6234 287.484 38.6234C288.886 38.3661 290.669 38.2375 292.07 38.2375C292.07 38.2375 292.07 38.2375 291.943 38.1088C290.414 37.0798 288.121 35.9221 286.211 35.0217Z" fill="url(#paint1_linear_155_64894)"/>
<path d="M248.253 38.2375C249.654 39.7811 250.928 41.0674 251.947 41.8392C252.966 42.611 253.603 42.8682 253.603 42.8682C253.603 42.8682 252.966 42.4823 252.329 41.5819C251.565 40.6815 250.8 39.2666 249.781 37.4657C249.272 36.5653 248.635 35.6649 247.616 34.6359C246.47 33.6068 244.941 32.9637 243.031 32.835C241.12 32.5778 239.082 32.9637 237.171 33.6068C235.77 33.9927 234.497 34.5072 233.223 35.1504C231.312 35.9222 229.019 37.0798 227.236 38.3661C227.236 38.3661 227.236 38.3661 227.109 38.4948C228.637 38.4948 230.293 38.6234 231.694 38.8807C232.076 39.0093 232.331 39.0093 232.713 39.1379C232.968 39.2666 233.223 39.3952 233.605 39.3952C233.86 39.5238 234.497 39.7811 234.497 39.7811C235.643 40.2956 237.044 40.9388 238.445 41.3247C239.209 41.4533 239.846 41.7105 240.611 41.8392C240.865 41.8392 241.375 41.9678 241.757 41.9678C242.139 41.9678 242.521 41.9678 242.776 41.9678C244.05 41.9678 245.196 41.9678 246.215 42.0964C248.253 42.3537 249.781 42.7396 250.8 43.2541C251.819 43.7686 252.202 44.2831 252.202 44.2831C252.202 44.2831 251.947 43.64 251.055 42.8682C250.164 42.0964 248.508 41.196 246.47 40.6815C245.451 40.4242 244.304 40.167 243.031 40.0383C242.776 40.0383 242.394 39.9097 242.139 39.9097C241.884 39.9097 241.757 39.7811 241.502 39.6525C240.993 39.5238 240.356 39.2666 239.846 39.0093C238.827 38.6234 237.936 37.9803 236.917 37.2085C236.662 37.0798 236.407 36.8226 236.025 36.694C235.898 36.694 235.898 36.694 235.898 36.694H236.025C236.407 36.5653 236.917 36.4367 237.299 36.1794C238.955 35.6649 240.483 35.279 241.884 35.4076C243.285 35.4076 244.559 35.7935 245.451 36.3081C246.724 36.694 247.616 37.4657 248.253 38.2375Z" fill="url(#paint2_linear_155_64894)"/>
<path d="M259.589 46.2126C257.169 46.2126 257.169 49.9429 259.589 49.9429C262.009 49.9429 262.009 46.2126 259.589 46.2126Z" fill="url(#paint3_linear_155_64894)"/>
<path d="M259.589 29.4906C257.169 29.4906 257.169 33.2209 259.589 33.2209C262.009 33.2209 262.009 29.4906 259.589 29.4906Z" fill="url(#paint4_linear_155_64894)"/>
<path d="M251.82 50.4575C250.164 50.4575 250.164 53.1587 251.82 53.1587C253.475 53.1587 253.475 50.4575 251.82 50.4575Z" fill="url(#paint5_linear_155_64894)"/>
<path d="M266.85 50.8433C265.194 50.8433 265.194 53.5446 266.85 53.5446C268.506 53.4159 268.506 50.8433 266.85 50.8433Z" fill="url(#paint6_linear_155_64894)"/>
<path d="M242.266 38.752C243.922 38.752 243.922 36.0508 242.266 36.0508C240.611 36.0508 240.611 38.752 242.266 38.752Z" fill="url(#paint7_linear_155_64894)"/>
<path d="M276.276 36.1794C274.62 36.1794 274.62 38.8807 276.276 38.8807C278.059 38.8807 278.059 36.1794 276.276 36.1794Z" fill="url(#paint8_linear_155_64894)"/>
<path d="M523 60.2334L506.187 59.9761L472.432 59.5902L404.924 59.0757C403.65 59.0757 402.249 59.0757 400.975 59.0757C402.249 59.0757 403.395 58.9471 404.669 58.8184C407.726 58.4325 410.783 57.5321 413.203 55.8599C415.623 54.1877 417.534 51.4865 417.916 48.528C418.298 45.5695 417.152 42.8682 415.496 40.9388C414.732 39.9097 413.713 39.1379 412.821 38.4948C412.312 38.2375 411.802 37.8516 411.293 37.5944C410.656 37.3371 410.146 37.2085 409.509 37.2085C407.217 36.9512 405.051 37.5944 403.395 38.752C402.504 39.2666 401.867 40.0383 401.357 40.9388C400.975 41.8392 400.848 42.8682 400.975 43.64C401.103 44.5404 401.485 45.1836 401.867 45.9554C402.376 46.5985 402.886 47.113 403.65 47.3703C404.924 47.8848 406.325 47.7562 407.217 47.2417C408.108 46.7271 408.745 45.9554 409 45.3122C409.255 44.669 409.127 44.0259 409.127 43.7686C409.127 43.3827 409 43.2541 409 43.2541C409 43.2541 409 43.3827 409.127 43.7686C409.127 44.1545 409.127 44.669 408.872 45.3122C408.618 45.9554 408.108 46.5985 407.089 46.9844C406.198 47.3703 405.051 47.4989 403.905 46.8558C403.395 46.5985 402.886 46.2126 402.504 45.5695C402.122 44.9263 401.867 44.2832 401.739 43.5114C401.485 42.0964 402.376 40.5529 403.905 39.6524C405.433 38.752 407.344 38.3661 409.255 38.6234C409.764 38.752 410.146 38.8807 410.656 39.0093C411.038 39.1379 411.42 39.5238 411.802 39.7811C412.694 40.4242 413.458 41.196 414.095 42.0964C415.369 43.7686 416.133 46.084 415.751 48.2707C415.369 50.4574 413.84 52.5155 411.675 53.8018C409.509 55.2168 406.962 55.8599 404.16 56.1172C401.357 56.3744 398.428 56.2458 395.371 55.9886C389.384 55.3454 383.143 53.8018 376.774 51.8724C373.59 50.8433 370.533 49.6856 367.221 48.3993C363.909 47.113 360.597 45.9554 357.158 44.9263C348.497 42.2251 339.708 40.167 331.301 39.5238C327.098 39.1379 322.895 39.1379 318.819 39.6524C316.781 39.9097 314.743 40.2956 312.832 40.8101C312.323 40.9388 311.813 41.0674 311.431 41.3246L310.667 41.5819C310.412 41.7105 309.902 41.8392 309.648 41.9678C308.119 42.611 306.973 43.5114 306.081 44.2832L308.119 45.8267C308.756 46.3412 309.52 46.8558 310.157 47.2417C311.049 47.7562 311.94 48.2707 312.705 48.6566C314.488 49.557 316.144 50.3288 317.927 51.1006C321.366 52.5155 324.678 53.5446 327.862 54.3164C328.244 54.445 328.499 54.445 328.881 54.5736C324.805 54.5736 320.22 54.0591 315.252 52.6442C313.596 52.1296 311.94 51.6151 310.03 50.8433C308.756 50.3288 307.355 49.8143 305.826 49.4284C305.826 49.2998 305.699 49.1711 305.699 49.1711C304.68 46.7271 303.279 44.4118 302.005 42.4823C301.623 41.8392 301.114 41.196 300.731 40.5529C300.349 40.0383 300.095 39.6525 299.712 39.1379C298.311 37.3371 296.783 35.6649 295.127 33.9927C291.815 30.9056 287.739 28.4616 283.663 27.4325C281.625 26.918 279.587 26.918 277.931 27.1753C277.04 27.3039 276.276 27.4325 275.511 27.8184C274.747 28.0757 274.11 28.4616 273.473 28.8475C272.2 29.7479 271.308 30.7769 270.544 31.806C270.671 31.5487 270.798 31.2915 270.926 31.0342C271.181 30.391 271.435 29.6193 271.563 28.8475C271.69 28.0757 271.817 27.3039 271.817 26.5321C271.945 24.9885 271.69 23.3163 271.308 21.6441C270.544 18.4284 268.76 15.3412 266.977 12.5114L264.175 8.39518L263.538 7.36614L262.646 5.9512C261.755 4.53626 260.863 2.73543 259.972 1.06323L259.717 0.548706C258.825 2.09227 258.061 3.76447 257.169 5.30804L256.532 6.46572L256.15 6.98024L255.513 8.00929C254.622 9.42423 253.603 10.7105 252.711 12.1255C251.692 13.5404 250.801 14.8267 249.909 16.3703C249.145 17.9139 248.38 19.4574 247.998 21.1296C247.616 22.8018 247.489 24.3454 247.489 25.889C247.489 26.2749 247.489 26.6607 247.489 27.0466C247.489 27.5612 247.616 27.9471 247.744 28.3329C247.998 29.1047 248.253 29.7479 248.508 30.391C249.017 31.5487 249.527 32.7064 250.036 33.7354C249.017 32.0632 247.871 30.2624 245.833 28.7188C245.323 28.3329 244.559 27.9471 243.795 27.6898C243.031 27.4325 242.266 27.1753 241.375 27.0466C239.592 26.7894 237.681 26.918 235.643 27.3039C231.567 28.2043 227.491 30.7769 224.179 33.8641C222.523 35.4076 220.995 37.0798 219.594 39.0093C219.212 39.5238 218.957 39.9097 218.575 40.4242C218.193 41.0674 217.683 41.7105 217.301 42.3537C216.027 44.2832 214.626 46.7271 213.607 49.0425C213.48 49.1711 213.48 49.2998 213.352 49.4284C212.206 49.8143 211.06 50.2002 209.913 50.5861C208.003 51.2292 206.474 51.8724 204.691 52.3869C199.851 53.8018 195.265 54.445 191.189 54.445C191.571 54.3164 191.826 54.3164 192.208 54.1877C195.393 53.4159 198.832 52.3869 202.143 50.972C203.799 50.2002 205.583 49.4284 207.366 48.528C208.257 48.0134 209.149 47.6276 209.913 47.113C210.55 46.7271 211.314 46.2126 211.951 45.6981L213.989 44.1545C213.098 43.3827 211.951 42.4823 210.423 41.8392C210.041 41.7105 209.659 41.4533 209.404 41.4533L208.64 41.196C208.13 41.0674 207.748 40.9388 207.238 40.6815C205.328 40.167 203.29 39.7811 201.252 39.5238C197.176 39.0093 192.973 39.1379 188.769 39.3952C180.235 40.167 171.574 42.0964 162.912 44.7977C159.473 45.8267 156.161 46.9844 152.85 48.2707C149.538 49.557 146.481 50.7147 143.296 51.7437C136.928 53.8018 130.686 55.2168 124.7 55.8599C121.643 56.1172 118.713 56.2458 115.911 55.9886C113.109 55.7313 110.561 55.0881 108.396 53.6732C106.358 52.3869 104.702 50.3288 104.32 48.1421C103.938 45.9554 104.702 43.64 105.976 41.9678C106.613 41.0674 107.377 40.2956 108.268 39.6524C108.651 39.2666 109.033 39.0093 109.415 38.8807C109.797 38.752 110.306 38.6234 110.816 38.4948C112.727 38.2375 114.637 38.6234 116.166 39.5238C117.694 40.4242 118.586 41.8392 118.331 43.3827C118.204 44.1545 117.949 44.7977 117.567 45.4408C117.185 45.9554 116.675 46.4699 116.166 46.7271C115.019 47.2417 113.873 47.2417 112.981 46.8558C112.09 46.4699 111.453 45.8267 111.198 45.1836C110.943 44.5404 110.943 44.0259 110.943 43.64C110.943 43.2541 111.071 43.1255 111.071 43.1255C111.071 43.1255 111.071 43.2541 110.943 43.64C110.943 44.0259 110.816 44.5404 111.071 45.1836C111.325 45.8267 111.835 46.5985 112.854 47.113C113.746 47.6276 115.147 47.7562 116.42 47.2417C117.057 46.9844 117.694 46.4699 118.204 45.8267C118.586 45.1836 118.968 44.4118 119.095 43.5114C119.223 42.611 119.095 41.7105 118.713 40.8101C118.331 39.9097 117.567 39.1379 116.675 38.6234C115.019 37.4657 112.854 36.9512 110.561 37.0798C109.924 37.0798 109.415 37.2085 108.778 37.4657C108.141 37.723 107.632 38.1089 107.249 38.3661C106.358 39.0093 105.339 39.9097 104.575 40.8101C102.919 42.7396 101.772 45.4408 102.154 48.3993C102.537 51.3578 104.447 53.9305 106.867 55.7313C109.287 57.5321 112.344 58.3039 115.401 58.6898C118.458 59.0757 121.515 59.0757 124.7 58.8184C130.941 58.3039 137.437 56.889 143.933 54.9595C147.245 53.9305 150.557 52.7728 153.741 51.6151C156.926 50.4574 160.237 49.2998 163.676 48.2707C172.21 45.5695 180.745 43.64 188.897 42.7396C192.973 42.3537 196.921 42.2251 200.742 42.611C202.653 42.7396 204.564 43.1255 206.219 43.5114C206.602 43.64 207.111 43.7686 207.493 43.8973L208.385 44.1545C208.512 44.2832 208.894 44.2832 208.894 44.4118C208.767 44.5404 208.64 44.669 208.257 44.9263C207.493 45.4408 206.602 45.9554 205.837 46.4699C204.181 47.3703 202.526 48.2707 200.997 49.0425C197.685 50.5861 194.501 51.7437 191.444 52.6442C189.279 53.2873 187.113 53.8018 185.075 54.1877C183.165 53.8018 181.636 53.2873 180.235 52.6442C178.452 51.8724 177.178 50.8433 176.286 49.8143C174.503 47.8848 173.994 46.3412 173.994 46.3412C173.994 46.3412 174.121 46.7271 174.376 47.3703C174.631 48.0134 175.013 48.9139 175.904 50.0715C176.669 51.2292 177.942 52.3869 179.598 53.5446C180.235 53.9305 180.999 54.3163 181.764 54.7022C179.343 54.9595 177.178 55.2168 175.14 55.3454C170.427 55.474 166.861 55.2168 164.313 54.9595C161.766 54.7022 160.492 54.445 160.492 54.445C160.492 54.445 161.766 54.8309 164.313 55.2168C166.733 55.7313 170.427 56.2458 175.14 56.3744C177.942 56.3744 180.999 56.3744 184.438 55.8599C184.948 55.9886 185.457 56.2458 186.094 56.3744C191.189 57.6608 197.813 57.7894 205.2 56.5031C206.984 56.1172 209.022 55.6027 210.805 55.0881C212.716 54.5736 214.499 54.0591 216.537 53.6732C218.447 53.2873 220.485 53.03 222.269 53.03C227.364 52.9014 229.274 54.3164 229.274 54.3164C229.274 53.9305 229.529 53.5446 229.529 52.9014C229.529 52.3869 229.402 51.7437 229.147 51.2292C228.765 50.2002 228.001 49.2998 227.109 48.7852C226.727 48.528 226.09 48.2707 225.708 48.1421C225.326 48.0134 224.944 47.8848 224.561 47.8848C223.797 47.7562 223.16 47.7562 222.523 47.7562C219.976 47.8848 217.811 48.3993 215.773 48.9139C215.008 49.1711 214.244 49.2998 213.607 49.557C214.626 48.7852 215.9 48.0134 216.919 47.6276C217.174 47.4989 217.556 47.3703 217.811 47.2417C217.938 47.2417 218.065 47.113 218.193 47.113C218.447 46.9844 218.702 46.9844 218.957 46.8558C219.976 46.5985 221.122 46.4699 222.141 46.4699C223.16 46.4699 224.307 46.4699 225.453 46.4699C226.599 46.4699 227.873 46.4699 229.147 46.3412C230.421 46.2126 231.694 46.084 232.968 45.8267C233.223 45.8267 233.605 45.6981 233.86 45.6981C234.242 45.6981 234.624 45.5695 234.879 45.4408C235.516 45.3122 236.153 45.1836 236.662 44.9263C238.955 44.2832 240.993 43.8973 242.776 43.8973C244.304 43.7686 245.706 43.8973 246.979 44.1545C245.323 44.1545 243.54 44.4118 241.884 44.7977C239.209 45.5695 237.044 46.8558 235.134 48.2707C233.35 49.6856 231.822 51.1006 230.803 52.5155C228.637 55.2168 227.746 57.1462 227.746 57.1462C227.746 57.1462 229.656 56.6317 232.586 55.8599C234.115 55.474 235.898 55.2168 237.808 54.9595C239.719 54.7022 241.757 54.7022 243.668 55.0881C244.687 55.3454 245.451 55.6027 246.215 55.9886C246.342 56.1172 246.597 56.2458 246.725 56.3744C246.852 56.5031 246.979 56.6317 247.361 56.889C247.998 57.2749 248.635 57.5321 249.145 57.7894C251.565 58.5612 253.73 58.1753 255.386 57.4035C256.15 57.0176 256.787 56.3744 257.169 55.7313C257.297 55.6027 257.297 55.474 257.297 55.3454C257.424 55.474 257.424 55.7313 257.551 55.8599C257.934 56.7603 257.806 57.2749 257.806 57.2749C257.806 57.2749 258.061 56.7603 258.061 55.8599C258.061 55.2168 257.934 54.445 257.679 53.4159C257.679 53.5446 257.934 54.1877 257.679 53.4159C257.679 53.2873 257.551 53.1587 257.551 53.03C257.424 52.6442 257.297 52.2583 257.297 52.1296C257.042 51.3578 256.66 50.4574 256.405 49.557C256.278 49.2998 256.278 49.1711 256.278 48.9139C256.278 48.6566 256.278 48.6566 256.278 48.3993C256.278 47.8848 256.405 47.4989 256.532 46.9844C256.787 46.084 257.424 45.3122 258.316 44.2832L258.953 43.5114C259.08 43.3827 258.953 43.5114 258.953 43.3827L259.08 43.5114L259.717 44.2832C259.844 44.4118 259.844 44.5404 259.972 44.669V44.7977C260.608 45.5695 261.118 46.3412 261.5 47.113C261.882 48.0134 261.882 48.9139 261.755 49.6856C261.5 50.4574 261.118 51.3578 260.736 52.1296C259.972 53.6732 259.462 55.0881 259.589 55.9886C259.717 57.0176 260.099 57.4035 260.099 57.4035C260.099 57.4035 259.972 56.889 260.226 55.9886C260.354 55.7313 260.481 55.3454 260.608 55.0881C260.736 55.3454 260.863 55.6027 260.991 55.8599C261.373 56.5031 262.01 57.1462 262.774 57.5321C264.43 58.4325 266.595 58.6898 269.015 57.918C269.652 57.6608 270.289 57.4035 270.798 57.0176C271.181 56.7603 271.308 56.6317 271.435 56.5031C271.563 56.3744 271.817 56.2458 271.945 56.1172C272.709 55.7313 273.601 55.3454 274.492 55.2168C276.403 54.8309 278.568 54.9595 280.479 55.0881C282.389 55.3454 284.173 55.7313 285.701 55.9886C288.631 56.6317 290.541 57.2749 290.541 57.2749C290.541 57.2749 289.65 55.3454 287.484 52.6442C286.338 51.3578 284.937 49.8143 283.154 48.3993C281.37 46.9844 279.078 45.6981 276.403 44.9263C274.747 44.4118 272.964 44.1545 271.308 44.2832C272.582 44.0259 273.983 43.8973 275.511 44.0259C277.422 44.1545 279.46 44.5404 281.625 45.0549C282.135 45.1836 282.772 45.3122 283.408 45.5695C283.791 45.6981 284.045 45.6981 284.427 45.8267C284.81 45.8267 285.064 45.9554 285.319 45.9554C286.593 46.084 287.867 46.3412 289.14 46.4699C290.414 46.5985 291.688 46.5985 292.834 46.5985C293.981 46.5985 295.127 46.5985 296.146 46.5985C297.165 46.5985 298.311 46.7271 299.33 46.9844C299.585 47.113 299.84 47.113 300.095 47.2417C300.222 47.2417 300.349 47.3703 300.477 47.3703C300.731 47.4989 301.114 47.6276 301.368 47.7562C302.387 48.1421 303.406 48.7852 304.425 49.557C304.043 49.4284 303.534 49.2998 303.152 49.1711C301.114 48.6566 298.821 48.0134 296.273 47.8848C295.636 47.8848 294.872 47.8848 294.235 48.0134C293.853 48.0134 293.471 48.1421 293.089 48.2707C292.707 48.3993 292.197 48.6566 291.688 48.9139C290.796 49.4284 289.905 50.3288 289.522 51.3578C289.268 51.8724 289.14 52.3869 289.14 53.03C289.14 53.5446 289.14 54.0591 289.14 54.5736C289.14 54.5736 290.796 52.6442 296.273 53.1587C298.057 53.03 300.095 53.4159 302.005 53.8018C303.916 54.1877 305.826 54.7022 307.61 55.2168C309.393 55.7313 311.303 56.2458 313.214 56.6317C320.602 58.0466 327.098 57.918 332.32 56.6317C332.957 56.5031 333.721 56.2458 334.358 56.1172C337.925 56.5031 341.109 56.6317 343.911 56.6317C348.624 56.5031 352.318 55.9886 354.866 55.474C357.413 54.9595 358.687 54.7022 358.687 54.7022C358.687 54.7022 357.413 54.9595 354.866 55.2168C352.318 55.474 348.624 55.8599 344.039 55.6027C341.873 55.474 339.581 55.3454 337.161 54.9595C337.797 54.7022 338.434 54.3164 339.071 53.9305C340.854 52.7728 342.001 51.6151 342.892 50.4574C343.657 49.2998 344.166 48.3993 344.421 47.7562C344.676 47.113 344.803 46.7271 344.803 46.7271C344.803 46.7271 344.676 47.113 344.293 47.6276C343.911 48.2707 343.402 49.0425 342.51 50.0715C341.619 50.972 340.345 52.001 338.689 52.9014C337.288 53.5446 335.759 54.0591 333.849 54.445C331.811 54.0591 329.773 53.5446 327.607 52.9014C324.55 52.001 321.366 50.8433 318.054 49.2998C316.398 48.528 314.743 47.7562 313.214 46.7271C312.45 46.2126 311.558 45.8267 310.794 45.1836C310.539 44.9263 310.412 44.9263 310.157 44.669C310.285 44.5404 310.539 44.4118 310.667 44.4118L311.558 44.1545C311.94 44.0259 312.45 43.8973 312.832 43.7686C314.615 43.2541 316.398 42.9968 318.309 42.8682C322.13 42.4823 326.079 42.611 330.155 42.9968C338.307 43.8973 346.714 45.8267 355.375 48.528C358.687 49.557 361.999 50.7147 365.31 51.8724C368.495 53.03 371.806 54.3164 375.118 55.2168C381.614 57.1462 388.11 58.5612 394.479 59.0757C395.116 59.0757 395.88 59.2043 396.517 59.2043C376.519 59.0757 356.521 59.0757 336.524 58.9471L269.015 58.8184L201.507 58.9471C178.961 59.0757 156.543 58.9471 133.998 59.2043L66.4895 59.7188C43.9442 59.9761 21.5263 60.2334 -1.01898 60.6193C21.5263 61.0052 43.9442 61.2624 66.4895 61.5197L133.998 62.0342C156.543 62.2915 178.961 62.1628 201.507 62.2915L269.015 62.4201L336.524 62.2915C359.069 62.1628 381.487 62.2915 404.032 62.0342L471.541 61.5197L505.295 61.1338C506.059 61.1338 523 60.362 523 60.2334ZM257.424 54.1877C256.915 54.7022 256.278 55.2168 255.259 55.3454C253.985 55.6027 252.329 55.3454 250.801 54.5736C250.418 54.445 250.164 54.1877 249.909 53.9305C249.909 53.9305 249.527 53.5446 249.272 53.4159C249.017 53.1587 248.763 53.03 248.508 52.7728C247.361 52.001 246.088 51.4865 244.687 51.2292C242.012 50.7147 239.464 51.1006 237.299 51.7437C235.261 52.3869 233.605 53.1587 232.331 53.9305C235.006 52.1296 238.827 49.8143 243.158 48.528C245.323 47.8848 247.489 47.4989 249.399 47.6276C251.183 47.7562 252.711 48.1421 253.985 48.7852V48.9139C254.112 49.1711 254.24 49.4284 254.367 49.6856C254.877 50.5861 255.513 51.3578 255.896 52.1296C256.66 53.03 257.042 53.6732 257.424 54.1877ZM276.275 48.528C280.606 49.8143 284.427 52.1296 287.102 53.9305C285.701 53.1587 284.045 52.3869 282.135 51.7437C280.097 51.1006 277.549 50.7147 274.747 51.2292C273.346 51.4865 272.072 52.001 270.926 52.7728C270.671 53.03 270.416 53.1587 270.162 53.4159C269.907 53.6732 269.652 53.9305 269.525 53.9305C269.27 54.1877 269.015 54.445 268.633 54.5736C267.232 55.3454 265.449 55.6027 264.175 55.3454C263.029 55.2168 262.264 54.5736 261.882 53.9305C262.264 53.4159 262.646 52.9014 263.156 52.2583C263.793 51.4865 264.43 50.7147 264.939 49.8143C265.067 49.4284 265.194 49.1711 265.321 48.7852C266.595 48.1421 268.124 47.7562 269.907 47.6276C271.945 47.6276 274.11 47.8848 276.275 48.528ZM299.967 42.7396C299.84 42.7396 299.712 42.7396 299.458 42.611C299.203 42.611 298.821 42.4823 298.566 42.4823C297.42 42.3537 296.273 42.4823 295.254 42.7396C293.216 43.1255 291.306 43.64 289.14 43.64C288.121 43.64 286.975 43.64 285.829 43.5114C285.574 43.5114 285.319 43.5114 285.064 43.5114C284.937 43.5114 284.682 43.5114 284.427 43.3827C283.918 43.2541 283.408 43.1255 282.772 42.9968C280.606 42.4823 278.314 42.2251 276.403 42.3537C272.964 42.3537 270.289 43.3827 268.506 44.669C267.359 45.0549 266.34 45.5695 265.449 46.2126C265.194 45.0549 264.557 43.8973 263.793 42.8682L262.137 40.5529C261.373 39.3952 260.608 37.9803 259.844 36.8226C259.08 37.9803 258.316 39.3952 257.679 40.5529C257.551 40.8101 257.297 41.0674 257.169 41.3246L256.66 42.0964L256.023 42.8682C255.259 43.8973 254.494 45.0549 254.24 46.3412C253.348 45.6981 252.329 45.1836 251.183 44.9263C249.399 43.7686 246.597 42.7396 243.285 42.611C241.375 42.611 239.082 42.8682 236.917 43.2541C236.407 43.3827 235.77 43.5114 235.261 43.64C235.006 43.64 234.751 43.7686 234.624 43.7686C234.369 43.7686 234.115 43.7686 233.86 43.7686C232.713 43.7686 231.694 43.8973 230.548 43.8973C228.383 43.8973 226.599 43.3827 224.434 42.9968C223.415 42.8682 222.269 42.7396 221.122 42.7396C220.868 42.7396 220.485 42.7396 220.231 42.8682C220.103 42.8682 219.976 42.8682 219.721 42.9968C219.849 42.8682 219.849 42.8682 219.976 42.7396C220.103 42.4823 220.358 42.2251 220.485 42.0964C220.868 41.5819 221.122 41.196 221.504 40.6815C222.906 39.0093 224.307 37.3371 225.963 35.9222C229.02 33.0923 232.331 31.0342 235.643 30.2624C237.299 29.8765 238.827 29.6193 240.229 29.7479C240.865 29.7479 241.63 29.8765 242.266 30.0051C242.903 30.1338 243.413 30.391 243.922 30.6483C245.96 31.6773 247.489 33.3495 248.763 34.8931C250.036 36.4367 251.055 37.9803 252.074 39.3952C253.093 40.8101 253.985 41.9678 254.749 42.9968C254.877 43.1255 255.004 43.2541 255.131 43.3827C255.513 42.8682 255.768 42.3537 256.15 41.9678C255.513 40.4242 254.749 38.752 254.112 36.8226C253.221 34.6359 252.202 32.3205 251.437 29.8765C251.183 29.2334 251.055 28.5902 250.928 28.0757C250.928 27.8184 250.801 27.4325 250.801 27.3039V26.2749C250.801 24.9885 251.055 23.5736 251.437 22.2873C252.202 19.7147 253.858 17.2707 255.896 14.6981C256.915 13.4118 257.934 11.9968 258.953 10.5819L259.717 9.42423L260.099 8.9097L260.226 9.16696L260.608 9.68149L261.373 10.7105L264.302 14.8267C266.213 17.528 267.741 20.1006 268.633 22.6732C269.015 23.9595 269.27 25.3744 269.27 26.6607C269.27 27.3039 269.27 27.9471 269.143 28.5902C269.015 29.2334 268.888 29.7479 268.76 30.391C267.996 32.835 266.85 35.0217 265.703 37.0798C264.939 38.6234 264.175 40.167 263.538 41.5819C263.793 41.8392 263.92 42.2251 264.175 42.4823C264.43 42.8682 264.684 43.2541 264.812 43.64C264.939 43.5114 265.067 43.3827 265.321 43.1255C266.086 42.2251 267.105 40.9388 267.996 39.5238C269.015 38.1089 270.034 36.5653 271.308 35.0217C272.582 33.4782 274.11 31.806 276.148 30.7769C276.658 30.5197 277.167 30.2624 277.804 30.1338C278.441 30.0051 279.078 29.8765 279.842 29.8765C281.243 29.7479 282.772 30.0051 284.427 30.391C287.612 31.2915 291.051 33.3495 294.108 36.0508C295.636 37.4657 297.165 39.1379 298.566 40.8101C298.948 41.196 299.33 41.7105 299.585 42.2251C299.712 42.4823 299.967 42.7396 300.095 42.8682C299.84 42.611 299.84 42.611 299.967 42.7396Z" fill="url(#paint9_linear_155_64894)"/>
<path d="M523 60.2343C523 60.2343 513.065 60.1036 523 60.2343V60.2343Z" fill="url(#paint10_linear_155_64894)"/>
<path d="M252.329 37.8517C252.711 38.6235 253.093 39.2666 253.348 39.9098C253.093 39.5239 252.966 39.138 252.711 38.7521C252.711 38.4948 252.456 38.1089 252.329 37.8517Z" fill="url(#paint11_linear_155_64894)"/>
<path d="M114.764 45.3122C115.89 45.3122 116.802 44.3907 116.802 43.2541C116.802 42.1174 115.89 41.196 114.764 41.196C113.639 41.196 112.726 42.1174 112.726 43.2541C112.726 44.3907 113.639 45.3122 114.764 45.3122Z" fill="url(#paint12_linear_155_64894)"/>
<path d="M403.013 43.2541C403.013 44.5404 404.032 45.5694 405.306 45.5694C406.58 45.5694 407.599 44.5404 407.599 43.2541C407.599 41.9678 406.58 40.9387 405.306 40.9387C404.032 40.9387 403.013 41.9678 403.013 43.2541Z" fill="url(#paint13_linear_155_64894)"/>
<defs>
<linearGradient id="paint0_linear_155_64894" x1="259.842" y1="14.698" x2="259.842" y2="40.0382" gradientUnits="userSpaceOnUse">
<stop stop-color="#F7C631"/>
<stop offset="0.463542" stop-color="#FFF9AB"/>
<stop offset="1" stop-color="#F7CA3A"/>
</linearGradient>
<linearGradient id="paint1_linear_155_64894" x1="278.95" y1="32.6742" x2="278.95" y2="44.0259" gradientUnits="userSpaceOnUse">
<stop stop-color="#F7C631"/>
<stop offset="0.463542" stop-color="#FFF9AB"/>
<stop offset="1" stop-color="#F7CA3A"/>
</linearGradient>
<linearGradient id="paint2_linear_155_64894" x1="240.356" y1="32.7545" x2="240.356" y2="44.2831" gradientUnits="userSpaceOnUse">
<stop stop-color="#F7C631"/>
<stop offset="0.463542" stop-color="#FFF9AB"/>
<stop offset="1" stop-color="#F7CA3A"/>
</linearGradient>
<linearGradient id="paint3_linear_155_64894" x1="259.589" y1="46.2126" x2="259.589" y2="49.9429" gradientUnits="userSpaceOnUse">
<stop stop-color="#F7C631"/>
<stop offset="0.463542" stop-color="#FFF9AB"/>
<stop offset="1" stop-color="#F7CA3A"/>
</linearGradient>
<linearGradient id="paint4_linear_155_64894" x1="259.589" y1="29.4906" x2="259.589" y2="33.2209" gradientUnits="userSpaceOnUse">
<stop stop-color="#F7C631"/>
<stop offset="0.463542" stop-color="#FFF9AB"/>
<stop offset="1" stop-color="#F7CA3A"/>
</linearGradient>
<linearGradient id="paint5_linear_155_64894" x1="251.82" y1="50.4575" x2="251.82" y2="53.1587" gradientUnits="userSpaceOnUse">
<stop stop-color="#F7C631"/>
<stop offset="0.463542" stop-color="#FFF9AB"/>
<stop offset="1" stop-color="#F7CA3A"/>
</linearGradient>
<linearGradient id="paint6_linear_155_64894" x1="266.85" y1="50.8433" x2="266.85" y2="53.5446" gradientUnits="userSpaceOnUse">
<stop stop-color="#F7C631"/>
<stop offset="0.463542" stop-color="#FFF9AB"/>
<stop offset="1" stop-color="#F7CA3A"/>
</linearGradient>
<linearGradient id="paint7_linear_155_64894" x1="242.266" y1="36.0508" x2="242.266" y2="38.752" gradientUnits="userSpaceOnUse">
<stop stop-color="#F7C631"/>
<stop offset="0.463542" stop-color="#FFF9AB"/>
<stop offset="1" stop-color="#F7CA3A"/>
</linearGradient>
<linearGradient id="paint8_linear_155_64894" x1="276.323" y1="36.1794" x2="276.323" y2="38.8807" gradientUnits="userSpaceOnUse">
<stop stop-color="#F7C631"/>
<stop offset="0.463542" stop-color="#FFF9AB"/>
<stop offset="1" stop-color="#F7CA3A"/>
</linearGradient>
<linearGradient id="paint9_linear_155_64894" x1="260.991" y1="0.548706" x2="260.991" y2="62.4201" gradientUnits="userSpaceOnUse">
<stop stop-color="#F7C631"/>
<stop offset="0.463542" stop-color="#FFF9AB"/>
<stop offset="1" stop-color="#F7CA3A"/>
</linearGradient>
<linearGradient id="paint10_linear_155_64894" x1="520.792" y1="60.1762" x2="520.792" y2="60.2343" gradientUnits="userSpaceOnUse">
<stop stop-color="#F7C631"/>
<stop offset="0.463542" stop-color="#FFF9AB"/>
<stop offset="1" stop-color="#F7CA3A"/>
</linearGradient>
<linearGradient id="paint11_linear_155_64894" x1="252.839" y1="37.8517" x2="252.839" y2="39.9098" gradientUnits="userSpaceOnUse">
<stop stop-color="#F7C631"/>
<stop offset="0.463542" stop-color="#FFF9AB"/>
<stop offset="1" stop-color="#F7CA3A"/>
</linearGradient>
<linearGradient id="paint12_linear_155_64894" x1="114.764" y1="41.196" x2="114.764" y2="45.3122" gradientUnits="userSpaceOnUse">
<stop stop-color="#F7C631"/>
<stop offset="0.463542" stop-color="#FFF9AB"/>
<stop offset="1" stop-color="#F7CA3A"/>
</linearGradient>
<linearGradient id="paint13_linear_155_64894" x1="405.306" y1="40.9387" x2="405.306" y2="45.5694" gradientUnits="userSpaceOnUse">
<stop stop-color="#F7C631"/>
<stop offset="0.463542" stop-color="#FFF9AB"/>
<stop offset="1" stop-color="#F7CA3A"/>
</linearGradient>
</defs>
</svg>
